<?xml version="1.0" encoding="UTF-8"?>
 <svg xmlns="http://www.w3.org/2000/svg" xmlns:xlink="http://www.w3.org/1999/xlink" x="0px" y="0px"  width="1440px" height="1024px"  viewBox="0 0 1440 1024" version="1.1">
                        <!-- Generator: Sketch 61.2 (89653) - https://sketch.com -->
                        
                        
                        <defs>
                            <path d="M16.8089822,263.057726 C33.3560113,26.0236799 337.859937,-84.5069907 487.10738,76.3821729 C619.927831,219.562993 684.705478,421.527612 570.80736,565.86811 L226.892134,565.869135 C220.913648,554.806321 215.328041,543.596378 210.056009,532.555276 C159.313593,426.286539 0.261953028,500.091773 16.8089822,263.057726 Z" id="path-1"/>
                            <path d="M2.53091672,45.3648758 C-0.0677381441,29.3525283 -0.0677381441,20.8441854 2.53091672,19.8398471 C0.252648159,15.7290892 -0.185940052,11.9293806 1.21515209,8.44072114 C3.3167903,3.20773198 8.68279247,-1.88039287 50.3420419,1.97422804 C62.1540597,3.84515195 68.4431646,9.6210749 69.2093566,19.3019969 C69.9755485,28.9829189 69.4397276,38.7017593 67.6018939,48.4585182 L2.53091672,48.4585182 L2.53091672,45.3648758 Z" id="path-3"/>
                            <path d="M12.5241035,69.7179448 C4.17470116,65.5645479 0,47.7150686 0,16.169507 L0,-4.32009978e-13 C4.29226658,3.1350509 9.28368742,4.70257635 14.9742625,4.70257635 C20.7844578,4.70257635 55.9539064,-0.985563447 58.9242356,6.04346231 C61.8945647,13.0724881 64.0627143,57.8115477 50.478075,69.3005564 L50.478075,95.8568375 C48.4437272,105.323273 42.1668199,110.47179 31.647353,111.30239 C15.8681527,112.548289 13.8481786,101.288779 12.5241035,95.8568375 C11.6413867,92.2355434 11.6413867,83.5225791 12.5241035,69.7179448 Z" id="path-5"/>
                            <path d="M0.596507216,0.348589271 C3.35772838,13.7996621 7.43785759,19.9651118 12.8368949,18.8449384 C20.9354508,17.1646783 31.2595871,12.551323 42.6821632,18.1058223 C54.1047393,23.6603216 56.4228066,23.4145861 61.0234036,0.348589271 C60.7364031,13.979603 58.7229468,24.4140482 54.9830348,31.651925 C49.3731668,42.5087401 34.8738007,50.2113032 18.0710613,43.6796426 C6.86923497,39.3252021 1.04438362,24.8815177 0.596507216,0.348589271 Z" id="path-7"/>
                            <path d="M79.7667332,16.9580517 C69.9843875,6.62685694 62.5498389,1.46125957 57.4630874,1.46125957 C52.3763358,1.46125957 42.9295877,0.97417305 29.1228429,-4.32009978e-13 C28.2819615,2.8029382 29.0367486,4.91684372 31.3872043,6.34171656 C12.9492292,4.68075509 2.84305003,4.65122115 1.0686669,6.25311475 C-1.59290778,8.65595515 1.29560457,10.0504547 3.45213926,11.0911081 C1.84412655,12.6930062 3.11754358,14.3547919 7.27239034,16.0764652 C6.41901767,18.5004173 9.47377146,20.284808 16.4366517,21.4296372 C16.3992322,23.3484854 18.8816361,25.0194096 23.8838633,26.4424098 C31.3872043,28.5769101 53.0306892,32.7946554 59.9110547,32.7946554 C64.497965,32.7946554 69.7549915,34.0886947 75.6821341,36.6767731 L79.7667332,16.9580517 Z" id="path-9"/>
                            <path d="M208.051838,5.40012472e-14 C223.772725,6.81415968 233.400757,10.7930726 236.935933,11.9367387 C242.238698,13.652238 283.987225,14.7228524 293.554628,50.0810212 C303.122031,85.43919 318.69251,171.026224 306.899871,194.62014 C299.038112,210.349418 285.777205,234.601978 267.117149,267.37782 L267.117149,293.588209 L174.422443,293.588209 L168.09601,241.768479 L145.458587,290.963097 L101.447947,274.246298 C118.832103,217.014108 127.524181,184.517325 127.524181,176.755946 C127.524181,168.994567 126.246542,152.599029 123.691265,127.569332 C109.034725,156.818696 96.026003,172.381359 84.6650976,174.25732 C73.3041921,176.133282 45.0824929,171.214231 0,159.500169 L7.56432045,121.144165 L74.1091125,130.678245 C89.3625774,70.0798992 104.506116,36.3828552 119.539729,29.5871129 C134.573341,22.7913705 146.827475,17.5075479 156.30213,13.735645 L168.972852,6.64926767 C173.535399,13.5896833 178.62566,17.0598911 184.243635,17.0598911 C189.86161,17.0598911 197.797677,11.3732607 208.051838,5.40012472e-14 Z M262.397619,145.161954 C256.199586,157.923907 256.199586,173.217581 262.397619,191.042977 L268.209101,173.049611 L262.397619,145.161954 Z" id="path-11"/>
                            <path d="M5.63107607,5.80121543 C-2.41182279,44.7194752 -1.14677648,89.6524028 9.42621499,140.599998 C31.7831783,101.211212 44.4789539,54.3445463 47.513542,-2.70006236e-14 L21.6707365,12.7525923 L5.63107607,5.80121543 Z" id="path-13"/>
                            <path d="M138.517326,64.1280795 C143.829647,92.0991147 141.985053,118.398049 132.983543,143.024881 L1.9061584,143.024881 C-0.478776101,108.076023 0.689567898,81.7770895 5.4111904,64.1280795 C16.5447992,22.5116282 20.0260545,1.13560171 15.8549565,0 L117.97288,5.28125474 C126.356857,16.541436 133.205005,36.1570443 138.517326,64.1280795 Z" id="path-15"/>
                            <path d="M101.306923,0.0603511795 L122.204294,2.52768288 C157.66293,12.0942949 177.704106,18.1674921 182.327821,20.7472744 C189.263395,24.6169479 198.309467,34.6216085 193.294678,56.3082014 C188.718807,76.0966788 178.335489,110.915047 165.074497,133.993209 L165.077295,134.005431 L164.75812,134.540623 C163.587397,136.554521 162.394579,138.475896 161.18166,140.286517 C174.216935,183.689269 181.991705,217.547898 184.50597,241.862406 L126.393224,241.759021 L130.881118,171.984264 C103.349905,179.489487 78.9138032,178.908181 57.5728114,170.240348 C53.8189303,210.945067 51.9419898,231.297427 51.9419898,231.297427 L31.8969506,234.1176 L46.3178352,142.346256 C42.3485568,142.536815 38.6343935,142.620559 35.1753453,142.597488 L34.2576333,142.600127 L34.2576333,142.600127 C33.7402198,142.600127 33.233336,142.587654 32.7369819,142.562707 C8.52916624,142.024388 -2.25276378,135.865241 0.390255791,124.085135 C5.03207641,103.396247 41.2799171,28.4662988 49.0584895,18.3383687 C56.837062,8.21043864 67.0876808,0.0603511795 101.306923,0.0603511795 Z" id="path-17"/>
                            <path d="M70.1893408,23.5015387 C69.2773384,21.3130583 67.1432072,20.9010565 63.7869473,22.2655332 L63.5652104,14.4155975 C53.4512183,13.9628375 44.9367176,13.9628375 37.6857472,12.0184877 C31.0849262,10.2484757 23.2776533,6.24231312 14.2639284,-6.75015591e-15 C11.8253599,4.85956766 9.35298526,7.80178144 6.84680433,8.82664134 L6.84680433,21.8087853 C3.25392222,20.2167162 1.04100182,20.7809673 0.208043131,23.5015387 C-1.04139491,27.5823957 3.6325881,37.7191163 6.34808195,38.8970441 C8.05683842,49.5128245 11.4963194,58.1570827 16.666525,64.8298189 C17.878322,78.0657158 17.878322,86.7723468 16.666525,90.9497119 C14.8488294,97.2157595 12.6419684,107.947463 26.7368066,110.806403 C40.8316448,113.665343 52.6126885,95.9806471 53.4512183,90.9497119 C54.0102382,87.5957551 54.0102382,78.8891241 53.4512183,64.8298189 C57.3817762,60.3412769 60.7531068,51.6970186 63.5652104,38.8970441 C64.6041925,38.5648133 65.6598039,37.7323396 66.7320444,36.3996229 C69.0862634,33.4735007 71.5573444,26.7842592 70.1893408,23.5015387 Z" id="path-19"/>
                        </defs>
                        <g id="1.-Welcome-greeting" stroke="none" stroke-width="1" fill="none" fill-rule="evenodd">
                            
                            
                            
                            <g transform="translate(766.000000, 177.000000)">
                                <g id="Background" transform="translate(38.950000, 0.000000)">
                                    <path d="M313.854729,76.3821729 C486.928262,76.3821729 627.232082,216.734614 627.232082,389.868125 C627.232082,455.1103 607.308653,515.697497 573.216037,565.873478 L54.4934214,565.873478 C20.4008053,515.697497 0.477376196,455.1103 0.477376196,389.868125 C0.477376196,216.734614 140.781196,76.3821729 313.854729,76.3821729 Z" id="Combined-Shape" fill="#E7EEFF"/>
                                    <mask id="mask-2" fill="white">
                                        <use xlink:href="#path-1"/>
                                    </mask>
                                    <use id="Mask" fill="#F4F7FF" xlink:href="#path-1"/>
                                </g>
                                <g id="Man" transform="translate(0.000000, 119.699998)">
                                    <rect id="Rectangle" fill="#13BB84" transform="translate(312.320940, 359.993263) rotate(18.000000) translate(-312.320940, -359.993263) " x="256.74594" y="322.468263" width="111.149999" height="75.0499991"/>
                                    <g>
                                        <polygon id="Path-5" fill="#000946" points="186.01517 362.313928 192.374998 445.846603 332.23748 445.846603 330.755251 405.629327 306.893348 397.669769 256.433841 339.509752 192.374998 339.509752"/>
                                        <g id="Head" transform="translate(223.349261, 0.000000)">
                                            <g id="Head-MAn-1">
                                                <g id="Path-24" transform="translate(1.367066, 0.000000)">
                                                    <mask id="mask-4" fill="white">
                                                        <use xlink:href="#path-3"/>
                                                    </mask>
                                                    <use id="Mask" fill="#2C1919" xlink:href="#path-3"/>
                                                    <path d="M64.8589991,48.4634744 L2.53091672,47.3265227 C-0.843638907,28.9643082 -0.843638907,19.8020442 2.53091672,19.8397308 C6.48868721,25.8165096 17.0024186,27.8087821 34.072111,25.8165484 C59.6766495,22.8281977 68.1498263,25.7586946 65.9268689,45.3648758 C64.4448974,58.4356633 64.0889408,59.4685295 64.8589991,48.4634744 Z" fill="#160F0F" mask="url(#mask-4)"/>
                                                </g>
                                                <path d="M6.14674156,46.8589907 C3.79181931,44.8668376 1.89490562,44.8668376 0.456000501,46.8589907 C-1.70235717,49.8472204 4.37289752,61.7849975 6.74324878,61.7849975 C8.32348296,61.7849975 8.12464722,56.8096619 6.14674156,46.8589907 Z" id="Path-22" fill="#FF927A"/>
                                                <path d="M71.2177187,46.8589907 C68.8627964,44.8668376 66.9658828,44.8668376 65.5269776,46.8589907 C63.36862,49.8472204 69.4438747,61.7849975 71.8142259,61.7849975 C73.3944601,61.7849975 73.1956244,56.8096619 71.2177187,46.8589907 Z" id="Path-22-Copy" fill="#FF927A" transform="translate(68.968959, 53.574937) scale(-1, 1) translate(-68.968959, -53.574937) "/>
                                                <g id="Path-21" transform="translate(6.146742, 25.816548)">
                                                    <mask id="mask-6" fill="white">
                                                        <use xlink:href="#path-5"/>
                                                    </mask>
                                                    <use id="Mask" fill="#FF927A" xlink:href="#path-5"/>
                                                    <path d="M26.5752954,24.4795952 L26.5752954,42.3930677 C27.7248892,43.591345 28.94136,44.1904836 30.2247078,44.1904836 C31.5080556,44.1904836 32.7490393,43.591345 33.9476589,42.3930677" id="Path-17" stroke="#000000" stroke-width="1.14000003" mask="url(#mask-6)"/>
                                                    <ellipse id="Oval" fill="#000000" mask="url(#mask-6)" cx="39.812358" cy="27.9145253" rx="1.91385227" ry="2.71995502"/>
                                                    <ellipse id="Oval-Copy" fill="#000000" mask="url(#mask-6)" cx="16.8461307" cy="27.9145253" rx="1.91385227" ry="2.71995502"/>
                                                    <path d="M11.2644772,18.9358241 C15.1780685,17.3994836 18.952472,17.3994836 22.5876875,18.9358241" id="Path-19" stroke="#000000" stroke-width="1.14000003" mask="url(#mask-6)"/>
                                                    <path d="M34.2307045,18.9358241 C38.1442958,17.3994836 41.9186992,17.3994836 45.5539148,18.9358241" id="Path-19-Copy" stroke="#000000" stroke-width="1.14000003" mask="url(#mask-6)" transform="translate(39.892310, 18.359696) scale(-1, 1) translate(-39.892310, -18.359696) "/>
                                                    <path d="M10.9149677,68.272707 C23.9168516,78.8757097 37.6401536,78.8757097 52.0848737,68.272707 L51.1529516,75.5597813 C39.9237372,86.3061485 25.7108985,91.6793321 8.51443548,91.6793321 L10.9149677,68.272707 Z" fill="#E1806A" mask="url(#mask-6)"/>
                                                </g>
                                                <g id="Path-23" transform="translate(6.146742, 57.811006)">
                                                    <mask id="mask-8" fill="white">
                                                        <use xlink:href="#path-7"/>
                                                    </mask>
                                                    <use id="Mask" fill="#2C1919" xlink:href="#path-7"/>
                                                    <path d="M0.596507216,-1.35997751 C4.34979145,29.1767577 15.0094006,43.7785147 32.5753346,42.4452935 C43.1931368,41.6394224 51.4693674,37.1368876 57.4040266,28.9376891 C54.5976058,35.0741641 51.2826531,39.6874632 47.4591684,42.7775866 C41.7239414,47.4127717 20.8797314,54.8503241 11.2644772,43.6408546 C4.85430777,36.1678749 1.29831776,26.3796886 0.596507216,14.2762957 L0,0.348589271 L0.596507216,-1.35997751 Z" fill="#160F0F" mask="url(#mask-8)"/>
                                                </g>
                                                <path d="M28.8943324,81.5756263 L45.4626988,81.5756263 C42.8627534,86.5961675 39.8855382,88.985191 36.5310534,88.7426968 C33.1765685,88.5002026 30.6309948,86.1111791 28.8943324,81.5756263 Z" id="Path-6" fill="#EEECEA"/>
                                            </g>
                                            <g id="Group" transform="translate(4.752160, 44.176245)" stroke="#000000" stroke-width="1.14000003">
                                                <circle id="Oval" cx="18.0478407" cy="9.4037567" r="7.98000022"/>
                                                <circle id="Oval-Copy-3" cx="40.8478414" cy="9.4037567" r="7.98000022"/>
                                                <line x1="26.027841" y1="8.84601999" x2="32.8678412" y2="8.84601999" id="Path-12"/>
                                                <line x1="48.8278416" y1="8.84601999" x2="62.9545834" y2="1.18863108" id="Path-13"/>
                                                <line x1="-1.03783647e-13" y1="8.84601999" x2="10.5145819" y2="-5.4423132e-14" id="Path-13-Copy" transform="translate(5.257291, 4.423010) scale(-1, 1) translate(-5.257291, -4.423010) "/>
                                            </g>
                                        </g>
                                        <g id="Hand" transform="translate(0.000000, 216.257108)">
                                            <mask id="mask-10" fill="white">
                                                <use xlink:href="#path-9"/>
                                            </mask>
                                            <use id="Mask" fill="#FF927A" xlink:href="#path-9"/>
                                            <path d="M16.4366517,21.4296372 C16.335621,20.216011 18.7005809,20.216011 23.5315314,21.4296372 C30.7779572,23.2500766 39.6699294,23.6328904 42.3204389,23.4414835 C44.9709483,23.2500766 45.0910769,16.4284925 64.7067516,17.3834395" id="Path-175" stroke="#7D1C1C" stroke-width="0.949999988" mask="url(#mask-10)"/>
                                            <path d="M7.27239034,16.0764652 C8.12138084,14.5551791 16.8252233,14.9603018 33.3839177,17.2918333" id="Path-176" stroke="#7D1C1C" stroke-width="0.949999988" mask="url(#mask-10)"/>
                                            <path d="M3.45213926,11.0911081 C6.68123806,9.64169382 16.8308559,9.84299056 33.9009929,11.6949983" id="Path-177" stroke="#7D1C1C" stroke-width="0.949999988" mask="url(#mask-10)"/>
                                            <path d="M33.9009929,10.1366095 C32.3701473,13.9857042 32.8400108,17.5395145 35.3105834,20.7980404" id="Path-178" stroke="#7D1C1C" stroke-width="0.949999988" mask="url(#mask-10)"/>
                                            <path d="M31.3872043,6.34171656 C35.6714817,7.05267854 39.5203064,7.40815953 42.9336783,7.40815953" id="Path-179" stroke="#7D1C1C" stroke-width="0.949999988" mask="url(#mask-10)"/>
                                        </g>
                                        <g id="Body" transform="translate(72.306011, 105.149825)">
                                            <mask id="mask-12" fill="white">
                                                <use xlink:href="#path-11"/>
                                            </mask>
                                            <use id="Combined-Shape" fill="#FFFFFF" xlink:href="#path-11"/>
                                            <polygon id="Path-181" fill="#E7EEFF" mask="url(#mask-12)" points="167.97406 5.19924022 134.386526 34.0551254 152.472544 40.1262209 137.979876 48.7943316 171.754703 141.535299"/>
                                            <polygon id="Path-182" fill="#E7EEFF" mask="url(#mask-12)" points="208.323544 -0.307256697 220.328697 4.07074655 238.825593 32.7759361 218.39565 37.5344876 232.844678 51.9702296 171.754703 141.758384 206.069565 11.6984732"/>
                                            <g id="Path-171-+-Path-172-Mask" mask="url(#mask-12)">
                                                <g transform="translate(162.328488, 0.935301)">
                                                    <mask id="mask-14" fill="white">
                                                        <use xlink:href="#path-13"/>
                                                    </mask>
                                                    <use id="Mask" stroke="none" fill="#77C5FF" fill-rule="evenodd" xlink:href="#path-13"/>
                                                    <polygon id="Path-171" stroke="none" fill="#0446C9" fill-rule="evenodd" mask="url(#mask-14)" points="10.9850492 27.1842093 17.3120388 37.2726023 22.8162601 37.2726023 32.6136338 26.5943388 25.5347757 16.5479912 12.5638081 16.5479912"/>
                                                    <path d="M17.3120388,37.2726023 L1.54039117,111.115889 C1.54039117,127.251256 4.16899911,138.288177 9.42621499,144.226653 L29.6832713,97.3660929 L22.8162601,37.2726023 L17.3120388,37.2726023 Z" id="Path-172" stroke="none" fill="#004DE6" fill-rule="evenodd" mask="url(#mask-14)"/>
                                                </g>
                                            </g>
                                            <path d="M167.97406,5.19924022 L163.868879,36.4856613 L184.306962,17.7137187 L204.826948,37.5344876 C210.655519,23.559883 212.138158,10.4687808 209.274865,-1.738819 C206.411572,-13.9464188 192.644637,-11.6337324 167.97406,5.19924022 Z" id="Path-170" fill="#41A3FF" mask="url(#mask-12)"/>
                                            <path d="M171.754703,139.869518 C171.754703,140.980039 170.421086,175.656939 167.753852,243.900219" id="Path" stroke="#E7EEFF" stroke-width="0.949999988" mask="url(#mask-12)"/>
                                            <circle id="Oval" fill="#737373" mask="url(#mask-12)" cx="180.024998" cy="147.724998" r="3.32499996"/>
                                            <circle id="Oval-Copy-2" fill="#737373" mask="url(#mask-12)" cx="180.024998" cy="185.724998" r="3.32499996"/>
                                            <polygon id="Path-2" fill="#E7EEFF" mask="url(#mask-12)" points="262.397619 191.042977 234.587337 248.698565 268.209101 268.528095 268.209101 294.499996 242.505959 294.499996 230.108745 246.494596"/>
                                            <path d="M268.317561,173.229249 C265.449873,181.928333 263.252629,188.200679 261.725827,192.046289 C260.90408,194.116052 253.270669,210.169653 238.825593,240.207091 C235.338924,210.839231 241.646758,169.158954 257.749095,115.16626 L262.979098,152.061005 L268.317561,173.229249 Z" id="Path-3" fill="#E7EEFF" mask="url(#mask-12)"/>
                                            <rect id="Rectangle" fill="#13BB84" mask="url(#mask-12)" transform="translate(240.014929, 254.843438) rotate(18.000000) translate(-240.014929, -254.843438) " x="184.43993" y="217.318439" width="111.149999" height="75.0499991"/>
                                            <polygon id="Path-4" fill="#E7EEFF" mask="url(#mask-12)" points="121.305005 104.636742 125.957581 152.857453 95.3769538 177.019042"/>
                                            <path d="M74.1091125,130.678245 C76.8669586,133.165471 78.5270855,136.997433 79.089493,142.174133 C73.0467335,134.867883 65.7189644,130.136832 57.1061858,127.980981 L72.3437905,128.888351 L74.1091125,130.678245 Z" id="Path-10" fill="#E7EEFF" mask="url(#mask-12)"/>
                                            <path d="M267.298448,172.618371 C274.64872,172.109184 280.695587,173.525025 285.439049,176.865895 C272.806049,181.629768 265.001555,186.435357 262.025567,191.282662 L267.298448,172.618371 Z" id="Path-11" fill="#E7EEFF" mask="url(#mask-12)"/>
                                            <polygon id="Path-7" fill="#FFFFFF" mask="url(#mask-12)" points="250.100891 216.447258 234.587337 248.698565 266.898717 267.878261 288.467167 229.257223"/>
                                            <path d="M305.271942,102.569453 C283.357201,137.662928 273.56632,162.197186 275.8993,176.172226 C277.102502,183.379662 288.631653,187.221219 310.486754,187.696898 L318.53149,160.401848 L305.271942,102.569453 Z" id="Path-8" fill="#E7EEFF" mask="url(#mask-12)"/>
                                        </g>
                                        <path d="M310.779316,355.669849 L332.23748,368.286929 C327.11556,375.155332 324.294109,380.722084 323.773126,384.987184 C322.991653,391.384835 315.566688,403.122395 312.733,403.122395 C309.899313,403.122395 287.078159,402.279867 285.304629,400.50895 C283.5311,398.738034 280.806085,392.563325 282.168592,390.010253 C284.841122,391.05737 286.748923,390.608031 287.891993,388.662235 C289.035063,386.71644 290.32641,384.144532 291.766035,380.946512 C288.855875,384.068542 285.656727,385.415433 282.168592,384.987184 C280.765353,384.779822 281.746461,382.764959 285.111917,378.942597 C290.160102,373.209054 290.160102,366.493597 297.200609,363.82316 C301.89428,362.042868 306.420516,359.325098 310.779316,355.669849 Z" id="Hand" fill="#FF927A"/>
                                    </g>
                                    <line x1="258.406191" y1="375.116125" x2="277.805839" y2="316.951913" id="Path-168" stroke="#FFFFFF" stroke-width="0.949999988"/>
                                    <line x1="266.956191" y1="378.916125" x2="286.355838" y2="320.751913" id="Path-168-Copy" stroke="#FFFFFF" stroke-width="0.949999988"/>
                                    <line x1="275.506191" y1="381.766125" x2="294.905838" y2="323.601913" id="Path-168-Copy-2" stroke="#FFFFFF" stroke-width="0.949999988"/>
                                </g>
                                <g id="Woman-Scientist" transform="translate(352.449996, 136.799998)">
                                    <g id="Path-34" transform="translate(35.892691, 285.687441)">
                                        <mask id="mask-16" fill="white">
                                            <use xlink:href="#path-15"/>
                                        </mask>
                                        <use id="Mask" fill="#004DE6" xlink:href="#path-15"/>
                                        <path d="M17.1749646,9.34709701 C33.5370078,17.3105862 48.3054086,41.5765431 61.480167,82.1449676 C81.2423047,142.997604 19.1889888,215.516731 28.6879636,245.641506 C34.5214902,264.141784 63.5682271,266.731482 115.828174,253.410598 C113.588817,227.393022 115.944986,206.176513 122.896681,189.761068 C133.324225,165.137902 148.794353,111.98063 141.059289,76.6539694 C135.902579,53.102862 133.327979,29.6742641 133.335486,6.36817551 L85.5645382,12.1680386 L17.1749646,9.34709701 Z" fill="#0446C9" mask="url(#mask-16)"/>
                                    </g>
                                    <g id="Clothes" transform="translate(0.000000, 127.897329)">
                                        <mask id="mask-18" fill="white">
                                            <use xlink:href="#path-17"/>
                                        </mask>
                                        <use id="Combined-Shape" fill="#FFFFFF" xlink:href="#path-17"/>
                                        <path d="M57.1189462,141.385593 C58.2635628,155.111175 58.4148512,164.729427 57.5728114,170.240348 C62.9149571,177.773612 74.7401488,181.42757 93.0483864,181.202222 C111.356624,180.976875 123.967535,177.904222 130.881118,171.984264 L129.609085,161.891298 C114.351664,160.870654 101.497011,158.911347 91.0451267,156.013377 C80.5932428,153.115407 69.2845159,148.239479 57.1189462,141.385593 Z" id="Path-40" fill="#41A3FF" mask="url(#mask-18)"/>
                                        <path d="M112.86796,-2.29648748 C101.156913,-0.430505631 93.4329229,3.83166918 89.695991,10.4900369 C84.0905932,20.4775886 49.4564902,70.1556759 48.4644046,83.6314672 C48.2124428,87.0539378 49.4213296,95.9928759 52.0910649,110.448282 C55.8182281,111.337627 58.7597299,111.820438 60.9155701,111.896716 C64.6423407,112.028575 70.6638205,111.945199 78.9800097,111.646588 L78.9800097,111.7823 C90.2779873,110.823577 97.9396317,109.926753 101.964943,109.091827 C110.044407,107.415993 115.086851,104.556182 117.736014,103.22761 C118.296792,102.946377 119.233875,102.800159 120.547266,102.788957 C121.937567,102.585093 123.675666,103.016419 125.761563,104.082936 C126.213971,95.5702821 126.781596,89.9816749 127.464437,87.3171148 C132.53855,67.5170855 142.001239,21.0516902 135.159713,8.13519016 C130.598695,-0.475809888 123.168111,-3.95303577 112.86796,-2.29648748 Z" id="Path-40-Copy" fill="#77C5FF" mask="url(#mask-18)"/>
                                        <path d="M127.921566,161.770553 C140.618247,160.498012 151.704945,153.336667 161.18166,140.286517 C166.785945,155.486615 170.927853,169.128456 173.607384,181.21204 L127.921566,161.770553 Z" id="Path" fill="#E7EEFF" mask="url(#mask-18)"/>
                                        <polygon id="Path-2" fill="#E7EEFF" mask="url(#mask-18)" points="131.946441 109.33068 151.951239 55.384883 129.768584 107.227101"/>
                                        <polygon id="Path-3" fill="#E7EEFF" mask="url(#mask-18)" points="57.8386414 151.223738 57.1189462 141.385593 45.0626981 142.600127"/>
                                        <path d="M31.5907408,102.626344 L53.0676551,48.3458123 C43.940464,72.0948467 39.3768684,85.4872257 39.3768684,88.5229493 C39.3768684,91.5586728 41.272145,98.6328069 45.0626981,109.745352 L31.5907408,102.626344 Z" id="Path-4" fill="#E7EEFF" mask="url(#mask-18)"/>
                                    </g>
                                    <g id="Head" transform="translate(78.888637, 0.000000)">
                                        <g id="Hair" transform="translate(0.099283, 0.000000)">
                                            <ellipse id="Oval" fill="#7D1C1C" cx="35.2160858" cy="18.9939083" rx="18.819155" ry="18.9939083"/>
                                            <path d="M7.93476098,93.0851372 C0.532882279,74.7238283 -1.64393989,57.1500668 1.40429446,40.3638527 C5.97664599,15.1845315 39.8364669,15.1725526 55.5649861,23.5371109 C71.2935053,31.9016691 77.7161061,58.4927248 61.6485396,93.0851372 C50.9368286,116.146745 33.0322357,116.146745 7.93476098,93.0851372 Z" id="Path-31" fill="#7D1C1C"/>
                                            <path d="M38.1918145,0.428074977 C50.9995693,1.89873277 56.2807114,9.37495153 54.0352408,22.8567312 C70.2904456,28.2223997 75.3092669,43.5466178 69.0917047,68.8293855" id="Path-32" stroke="#7D1C1C" stroke-width="1.25970003"/>
                                            <path d="M16.3969309,21.7798923 C27.7047054,16.4856019 40.2508087,16.8445482 54.0352408,22.8567312" id="Path-29" stroke="#FFFFFF" stroke-width="1.25970003"/>
                                        </g>
                                        <g id="Face" transform="translate(0.000000, 46.860367)">
                                            <mask id="mask-20" fill="white">
                                                <use xlink:href="#path-19"/>
                                            </mask>
                                            <use id="Mask" fill="#FFAE9C" xlink:href="#path-19"/>
                                            <g id="Group-4" mask="url(#mask-20)">
                                                <g transform="translate(17.603223, 21.294245)" id="Group-3">
                                                    <g>
                                                        <path d="M14.7260842,6.07313202 L14.7260842,25.4239221 C15.7486556,26.4941304 16.8307145,27.0292346 17.972261,27.0292346 C19.1138074,27.0292346 20.2176707,26.4941304 21.2838508,25.4239221" id="Path-17" stroke="#000000" stroke-width="1.25970003"/>
                                                        <ellipse id="Oval" fill="#000000" cx="26.5005399" cy="8.02365641" rx="1.70238439" ry="2.42925281"/>
                                                        <ellipse id="Oval-Copy" fill="#000000" cx="4.96491811" cy="8.02365641" rx="1.70238439" ry="2.42925281"/>
                                                        <path d="M-2.61568541e-14,1.12186576 C3.48116564,-0.250274387 6.83852273,-0.250274387 10.0720713,1.12186576" id="Path-19" stroke="#000000" stroke-width="1.25970003"/>
                                                        <path d="M21.5356218,1.12186576 C25.0167874,-0.250274387 28.3741445,-0.250274387 31.607693,1.12186576" id="Path-19-Copy" stroke="#000000" stroke-width="1.25970003" transform="translate(26.571657, 0.607313) scale(-1, 1) translate(-26.571657, -0.607313) "/>
                                                        <path d="M10.2143063,34.0095393 C13.5496467,34.6030825 16.0852343,34.8998541 17.8210691,34.8998541 C19.5569039,34.8998541 22.1873589,34.6030825 25.712434,34.0095393 C23.2804328,37.9137201 20.4955318,39.7715237 17.3577309,39.5829502 C14.2199301,39.3943766 11.8387885,37.536573 10.2143063,34.0095393 Z" id="Path-6" fill="#EEECEA"/>
                                                    </g>
                                                </g>
                                            </g>
                                            <path d="M15.2368205,63.3391519 C28.5361646,77.3369971 41.7727435,77.3369971 54.9465574,63.3391519 L54.3210886,70.6073917 C49.9385231,76.0996861 44.4248483,80.2358024 37.7800644,83.0157406 C31.1352804,85.7956788 23.6208658,87.847816 15.2368205,89.172152 L15.2368205,63.3391519 Z" id="Path-30" fill="#F99B86" mask="url(#mask-20)"/>
                                        </g>
                                        <ellipse id="Oval" fill="#0091FF" cx="4.31911326" cy="83.7966541" rx="2.21401823" ry="2.23457744"/>
                                        <ellipse id="Oval-Copy-2" fill="#0091FF" cx="65.2046147" cy="83.7966541" rx="2.21401823" ry="2.23457744"/>
                                        <path d="M14.1727096,45.661539 C27.4028707,60.0512716 43.8670377,65.2560802 63.5652104,61.2759648" id="Path-33" stroke="#7D1C1C" stroke-width="1.25970003"/>
                                    </g>
                                    <g id="Hand" transform="translate(10.348273, 206.263152)">
                                        <path d="M34.7144251,31.3795289 C33.556544,19.4246777 32.4451443,12.5905117 31.380226,10.8770308 C29.7828485,8.3068096 24.0858118,3.551996 22.7624254,-6.58140201e-14 C19.2110673,0.701085417 18.417163,2.77329572 20.3807125,6.21663092 C23.3260368,11.3816337 25.5929222,14.3550269 24.1776738,15.0398451 C19.4312596,9.76075911 16.2783953,6.96917605 14.719081,6.66509593 C12.3801095,6.20897576 1.65650087,5.15575281 0.971682674,6.66509593 C0.515137211,7.67132469 1.1563635,8.83533487 2.89536154,10.1571265 C1.60086757,10.2811894 0.701811108,11.0738985 0.198192166,12.5352539 C-0.557236247,14.7272869 0.904032369,16.6052839 3.60821898,18.1758683 C1.17061909,17.9685303 0.121796404,18.5367271 0.461750912,19.8804589 C0.971682674,21.8960566 7.93054552,23.6987923 8.65363953,26.7152457 C15.0026195,25.3686269 20.634701,25.6580432 25.5498841,27.5834945 C27.0732449,28.1802489 30.1280919,29.4455937 34.7144251,31.3795289 Z" id="Path-35" fill="#FFAE9C"/>
                                        <polyline id="Path-36" stroke="#7D1C1C" stroke-width="1.25970003" points="2.89536154 10.1571265 12.6107213 11.8910211 17.496779 15.3766723"/>
                                        <polyline id="Path-37" stroke="#7D1C1C" stroke-width="1.25970003" points="0.198192166 12.7668994 10.1960703 15.3766723 14.7796843 18.7414358"/>
                                        <path d="M3.0842089,18.0047861 C6.02069514,18.4958859 8.74441453,20.0919922 11.2553671,22.7931052" id="Path-38" stroke="#7D1C1C" stroke-width="1.25970003"/>
                                    </g>
                                    <path d="M78.9800097,239.543917 L78.9800097,264.222051 L100.737056,254.309797 L125.914405,254.309797 L131.946441,237.228009 C127.447601,232.39946 123.569481,230.179098 120.312081,230.566925 C115.425982,231.148664 105.469642,236.610549 98.5610624,237.228009 C93.955343,237.639649 87.4283254,238.411619 78.9800097,239.543917 Z" id="Path-39" fill="#FFAE9C"/>
                                </g>
                            </g>
                            <circle id="Oval" fill="#F4F7FF" cx="837" cy="847" r="36"/>
                            <circle id="Oval-Copy" fill="#E7EEFF" cx="896" cy="187" r="18"/>
                            
                            
                            
                            
                            
                            
                            
                            
                        </g>
                    </svg>