<svg xmlns="http://www.w3.org/2000/svg" xmlns:xlink="http://www.w3.org/1999/xlink" width="1440px" height="1024px" viewBox="0 0 1440 1024" version="1.1">
    <!-- Generator: Sketch 61.2 (89653) - https://sketch.com -->
    <title>19. Contact Customer service</title>
    <desc>Created with Sketch.</desc>
    <defs>
        <path d="M505.218197,346.299584 C351.53772,400.603484 207.055752,501.255022 84.6240478,416.800782 C-37.8076563,332.346541 -30.4941402,130.765368 126.882248,48.6493522 C284.258636,-33.4666636 429.377833,-2.50989923 545.310927,73.847798 C627.668964,128.091758 658.898674,291.995683 505.218197,346.299584 Z" id="path-1"/>
        <path d="M-9.09494702e-13,110.120194 C34.0404464,48.7498478 57.9062959,14.1144436 71.5975485,6.21398119 C92.1344275,-5.63671239 169.876316,0.463983502 196.756373,16.0561117 C214.67641,26.4508638 230.667785,60.61778 244.730498,118.55686 L192.738734,124.626877 L192.738734,207.594004 L55.1111192,227 C55.1572349,211.145986 55.4437127,195.552186 55.9705527,180.2186 C56.4973927,164.885014 57.4160223,145.404371 58.7264416,121.776672 L-9.09494702e-13,110.120194 Z" id="path-3"/>
        <path d="M67.995915,34.7915126 C68.6544541,33.4209622 69.6015461,29.0053085 70.8371913,21.5445513 C72.6906589,10.3534157 61.8622535,10.5254322 61.1304338,18.996857 C60.3986141,27.4682819 61.8622535,26.9516587 58.8175273,21.5445513 C55.7728011,16.137444 55.9551403,19.5566599 49.8998738,13.9199106 C43.8446072,8.28316138 46.3790186,-3.53029562 28.5605776,1.020713 C16.6816169,4.05471875 7.20319101,4.05471875 0.12530001,1.020713 C1.22949735,41.9030824 11.6320491,65.4777117 31.3329551,71.744601 L34.6632909,84.2520396 C33.3018217,98.5248866 37.1105053,105.66131 46.0893417,105.66131 C55.0681781,105.66131 65.2238118,96.3459227 76.5562429,77.7151478 L70.8371913,48.3461715 L67.995915,34.7915126 Z" id="path-5"/>
        <path d="M69.3836019,17.5838145 C56.9317363,5.8612715 44.7719871,-2.84217094e-13 32.9043543,-2.84217094e-13 C15.102905,-2.84217094e-13 4.54747351e-13,4.54548694 4.54747351e-13,8.79190725 C4.54747351e-13,11.6228541 7.2490091,11.6228541 21.7470273,8.79190725 C19.9971476,11.6136787 20.6879817,14.1247629 23.8195296,16.3251597 C21.7159922,20.3137078 22.5158493,23.1978493 26.2191008,24.9775843 C24.0478339,27.6650713 24.8211422,30.9236605 28.5390257,34.753352 C34.115851,40.4978892 38.7450662,37.4130353 39.5451495,36.0831936 C47.4760705,40.6841459 54.0924842,42.9642824 59.3943908,42.9236033 C59.6772084,43.8107093 59.9593636,44.4466614 60.2408565,44.8314596 C107.029222,108.790735 121.204617,136.784989 161.306838,155.481095 C186.97697,167.448799 203.496634,138.596626 190.54522,74.4275455 L140.800181,80.4551171 L69.3836019,17.5838145 Z" id="path-7"/>
        <ellipse id="path-9" cx="190.419574" cy="190.296439" rx="190.419574" ry="190.296439"/>
    </defs>
    <g id="19.-Contact-Customer-service" stroke="none" stroke-width="1" fill="none" fill-rule="evenodd">
        <rect fill="#FFFFFF" x="0" y="0" width="1440" height="1024"/>
        
        <g transform="translate(720.000000, 275.000000)">
            <g id="Man" transform="translate(51.071547, 64.356216)">
                <mask id="mask-2" fill="white">
                    <use xlink:href="#path-1"/>
                </mask>
                <use id="Mask" fill="#e8ecf9" xlink:href="#path-1"/>
                <g mask="url(#mask-2)">
                    <g transform="translate(312.928453, 47.643784)">
                        <g id="Path-206" transform="translate(10.033886, 121.196908)">
                            <mask id="mask-4" fill="white">
                                <use xlink:href="#path-3"/>
                            </mask>
                            <use id="Mask" fill="#008cddb8" xlink:href="#path-3"/>
                            <path d="M178.656223,72.8112436 C178.656223,74.019372 183.415939,91.8047348 192.935372,126.167332" id="Path-2" stroke="#062721" mask="url(#mask-4)"/>
                            <line x1="67.1261968" y1="64.2933539" x2="55.6978254" y2="139.807724" id="Path-4" stroke="#062721" mask="url(#mask-4)"/>
                        </g>
                        <g id="Head" transform="translate(132.295906, 76.826892) rotate(11.000000) translate(-132.295906, -76.826892) translate(92.295906, 6.826892)">
                            <path d="M4.35914686,56.9880064 C1.45304895,51.2194216 0,42.2001379 0,29.9301554 C0,23.2106645 3.21028123,12.8629269 9.32585185,8.78503517 C30.6601629,-5.44078546 59.2000908,0.0188854952 67.5721103,8.78503517 C78.1656461,19.8772837 83.457651,64.7122023 72.5413612,82.5229146 C65.2638346,94.3967228 42.5364298,85.8850867 4.35914686,56.9880064 Z" id="Path-6" fill="#062721"/>
                            <g id="Path-18-+-Path-Mask" transform="translate(2.367508, 33.351919)">
                                <mask id="mask-6" fill="white">
                                    <use xlink:href="#path-5"/>
                                </mask>
                                <use id="Mask" fill="#FFA07F" xlink:href="#path-5"/>
                                <path d="M31.3329551,71.744601 C38.1075019,72.1053598 44.0390667,70.6261021 49.1276497,67.3068279 L31.4464613,105.080565 L31.3329551,71.744601 Z" id="Path-18" fill="#DF8D70" mask="url(#mask-6)"/>
                                <polygon id="Path" fill="#DF8D70" mask="url(#mask-6)" points="5.05046687 3.55271368e-15 1.28910109 21.78456 -1.91426037 15.1321353 -8.19344592e-14 3.55271368e-15"/>
                                <path d="M15.5603351,29.829103 C15.3000713,35.6647877 14.4749748,41.0337267 13.0850458,45.9359199 C11.6951168,50.8381131 14.9706876,52.1571452 22.9117583,49.8930161" id="Path-5" stroke="#062721" stroke-width="1.17000003" mask="url(#mask-6)" transform="translate(17.843121, 40.397557) rotate(-11.000000) translate(-17.843121, -40.397557) "/>
                                <ellipse id="Oval" fill="#062721" mask="url(#mask-6)" cx="8.14578884" cy="32.0401697" rx="2.03644721" ry="2.00251061"/>
                                <ellipse id="Oval-Copy" fill="#062721" mask="url(#mask-6)" cx="28.5102609" cy="29.0364038" rx="2.03644721" ry="2.00251061"/>
                                <path d="M22.5791693,21.78456 C27.3662072,20.6995117 31.7106939,21.1448647 35.6126295,23.120619" id="Path-8" stroke="#062721" stroke-width="1.17000003" mask="url(#mask-6)"/>
                                <path d="M10.182236,25.1005556 C6.97795417,24.9888797 4.92619415,26.0121515 4.02695597,28.1703709" id="Path-9" stroke="#062721" stroke-width="1.17000003" mask="url(#mask-6)"/>
                                <path d="M30.9783718,53.8266721 L16.8192427,56.5330627 C19.5164839,61.2614293 22.4806477,63.3168161 25.7117341,62.6992229 C28.9428205,62.0816297 30.6983664,59.1241127 30.9783718,53.8266721 Z" id="Path-279" fill="#FFFFFF" mask="url(#mask-6)"/>
                            </g>
                        </g>
                        <g  id="Phone" transform="translate(19.004439, 145.795326)">
                            <path d="M7.92927131,2.41604165 L39.5277905,2.43207153 C40.7419436,2.43268747 41.7260561,3.41679811 41.7266742,4.63095128 L41.757788,65.746247 C41.7584065,66.9612733 40.7739346,67.9467482 39.5589082,67.9473668 C39.5581629,67.9473672 39.5574175,67.9473672 39.5566722,67.9473668 L8.9930492,67.9318619 C7.80276134,67.9312581 6.82881733,66.9840818 6.79505064,65.7942728 L5.0635499,4.78280767 L5.0635499,4.78280767 L6.16218822,3.30403506 C6.57748018,2.74505004 7.23290105,2.41568838 7.92927131,2.41604165 Z" id="Rectangle" fill="#849DFF" transform="translate(23.411230, 35.181982) rotate(-8.000000) translate(-23.411230, -35.181982) "/>
                            <path d="M7.28842944,3.9352096 L37.7916384,3.95068384 C39.0066647,3.95130022 39.9911385,4.93677334 39.9905221,6.15179966 C39.9905211,6.15378637 39.9905174,6.15577308 39.990511,6.15775979 L39.7984211,65.8786125 C39.7945205,67.0913058 38.8100157,68.0721513 37.5973163,68.0715361 L7.09410735,68.0560619 C5.87908103,68.0554455 4.89460726,67.0699724 4.89522365,65.8549461 C4.89522465,65.8529594 4.89522835,65.8509726 4.89523474,65.8489859 L5.08732471,6.12813318 C5.0912253,4.91543991 6.07573004,3.9345944 7.28842944,3.9352096 Z" id="Rectangle-Copy" fill="#B1C1FF" transform="translate(22.442873, 36.003373) rotate(-8.000000) translate(-22.442873, -36.003373) "/>
                            <ellipse id="Oval" fill="#FFFFFF" cx="8.04684632" cy="10.7964057" rx="2.02940193" ry="2.02193241"/>
                            <ellipse id="Oval-Copy-2" fill="#FFFFFF" cx="21.0350186" cy="27.7806379" rx="8.52348809" ry="8.4921161"/>
                        </g>
                        <g id="Left-hand" transform="translate(61.888106, 165.155760)">
                            <g id="Path-205">
                                <mask id="mask-8" fill="white">
                                    <use xlink:href="#path-7"/>
                                </mask>
                                <use id="Mask" fill="#FFA07F" xlink:href="#path-7"/>
                                <line x1="140.287273" y1="79.8329467" x2="182.326402" y2="118.043742" id="Path-3" stroke="#062721" mask="url(#mask-8)"/>
                            </g>
                            <path d="M21.4654113,8.9212317 C23.5278302,8.08754136 26.1127136,7.80964459 29.2200615,8.08754136" id="Path-202" stroke="#062721"/>
                            <path d="M23.8195296,16.3251597 C25.1053799,16.0476377 26.1407124,15.8796478 26.9255269,15.8211899 C27.7103414,15.762732 28.7456738,15.7764859 30.0315242,15.8624516" id="Path-207" stroke="#062721"/>
                            <path d="M26.2191008,24.9775843 C28.0738096,24.6879211 29.5220687,24.6879211 30.5638781,24.9775843" id="Path-208" stroke="#062721"/>
                            <path d="M33.080729,30.6645847 C34.5705955,32.5593837 36.9019001,34.4455025 40.0746426,36.3229412" id="Path-209" stroke="#062721"/>
                        </g>
                        <g id="Right-hand" transform="translate(0.000000, 161.947305)">
                            <path d="M15.5732538,40.9742612 C15.7789103,33.4699434 16.8480756,27.5953924 18.7807494,23.3506082 C19.765831,13.2763104 20.1607022,6.17169059 19.965363,2.03674878 C23.3021604,2.13455034 25.2835458,4.18592576 25.909519,8.19087504 C26.5354922,12.1958243 26.9734022,15.6138414 27.2232488,18.4449262 C39.7350676,5.00360086 51.6611154,-1.09142672 63.0013924,0.159843485 C64.1856925,1.62538502 62.4421874,3.48620622 57.770877,5.74230709 C50.7639114,9.12645841 44.3369909,12.7303154 41.276653,17.8613374 C51.3791712,11.5424204 59.7627876,8.08371987 66.4275023,7.48523569 C76.4245744,6.58750942 66.6666347,13.168416 60.0023231,15.5592959 C55.5594487,17.1532158 50.7084535,20.3934787 45.4493374,25.2800846 C58.8015407,19.945194 66.7887886,17.4722782 69.4110812,17.8613374 C72.0333738,18.2503966 66.12539,22.8097282 51.68713,31.5393322 C56.2214524,31.253049 60.6285464,30.0737514 64.908412,28.0014395 C71.3282106,24.8929715 68.7186672,30.9569544 64.908412,33.5332404 C61.0981569,36.1095265 46.7627222,49.7636515 42.5226418,50.8109641 L36.6563141,74.2987919 L68.760328,81.026275 C63.1504547,120.353895 51.2572056,142.845681 33.0805805,148.501632 C24.8138337,151.073964 -4.86151811,141.867715 1.83874084,99.5747351 C6.30558014,71.3794151 10.8837511,51.8459238 15.5732538,40.9742612 Z" id="Path-204" fill="#FFA07F"/>
                            <line x1="36.6563141" y1="74.2987919" x2="41.447312" y2="123.37307" id="Path-7" stroke="#062721"/>
                        </g>
                    </g>
                </g>
            </g>
            <g id="Hospital-+-Customer-Service-+-Computer-Mask-2">
                <g id="Hospital-+-Customer-Service-+-Computer-Mask">
                    <mask id="mask-10" fill="white">
                        <use xlink:href="#path-9"/>
                    </mask>
                    <use id="Mask" stroke="#e8ecf9" stroke-width="2" fill="#FCFBFF" xlink:href="#path-9"/>
                    <g mask="url(#mask-10)">
                        <g transform="translate(-38.635856, 119.008737)">
                            <g id="Hospital" transform="translate(104.868751, 4.546053)">
                                <polygon id="Rectangle" fill="#77c5ff" points="89.4144088 0 266.035463 0 266.035463 255.934921 89.4144088 255.934921"/>
                                <polygon id="Rectangle-Copy-30" fill="#008cddb8" transform="translate(44.707204, 179.816346) scale(-1, 1) translate(-44.707204, -179.816346) " points="0 103.69777 89.4144088 103.69777 89.4144088 255.934921 0 255.934921"/>
                                <polygon id="Rectangle-Copy-29" fill="#008cddb8" transform="translate(299.151911, 127.967461) scale(-1, 1) translate(-299.151911, -127.967461) " points="266.035463 0 332.268359 0 332.268359 255.934921 266.035463 255.934921"/>
                                <polygon id="Rectangle-Copy-31" fill="#77c5ff" transform="translate(310.742668, 179.816346) scale(-1, 1) translate(-310.742668, -179.816346) " points="266.035463 103.69777 355.449872 103.69777 355.449872 255.934921 266.035463 255.934921"/>
                                <g id="Group-14" transform="translate(283.697569, 119.142119)" fill="#008cddb8">
                                    <rect id="Rectangle" x="0" y="0" width="11.0388159" height="22.0633553"/>
                                    <rect id="Rectangle-Copy-34" x="22.0776318" y="0" width="11.0388159" height="22.0633553"/>
                                    <rect id="Rectangle-Copy-35" x="44.1552636" y="0" width="11.0388159" height="22.0633553"/>
                                    <rect id="Rectangle-Copy-38" x="0" y="33.0950329" width="11.0388159" height="22.0633553"/>
                                    <rect id="Rectangle-Copy-37" x="22.0776318" y="33.0950329" width="11.0388159" height="22.0633553"/>
                                    <rect id="Rectangle-Copy-36" x="44.1552636" y="33.0950329" width="11.0388159" height="22.0633553"/>
                                    <rect id="Rectangle-Copy-41" x="0" y="66.1900658" width="11.0388159" height="22.0633553"/>
                                    <rect id="Rectangle-Copy-40" x="22.0776318" y="66.1900658" width="11.0388159" height="22.0633553"/>
                                    <rect id="Rectangle-Copy-39" x="44.1552636" y="66.1900658" width="11.0388159" height="22.0633553"/>
                                    <rect id="Rectangle-Copy-44" x="0" y="99.2850988" width="11.0388159" height="22.0633553"/>
                                    <rect id="Rectangle-Copy-43" x="22.0776318" y="99.2850988" width="11.0388159" height="22.0633553"/>
                                    <rect id="Rectangle-Copy-42" x="44.1552636" y="99.2850988" width="11.0388159" height="22.0633553"/>
                                </g>
                                <polygon id="Rectangle-Copy-32" fill="#008cddb8" points="355.449872 103.69777 424.994412 103.69777 424.994412 255.934921 355.449872 255.934921"/>
                                <line x1="266.035463" y1="-7.88057961e-15" x2="266.035463" y2="255.934921" id="Path-129" stroke="#EEEBFF"/>
                                <g id="Group-14-Copy" transform="translate(363.177043, 119.142119)" fill="#77c5ff">
                                    <rect id="Rectangle" x="0" y="0" width="11.0388159" height="22.0633553"/>
                                    <rect id="Rectangle-Copy-34" x="22.0776318" y="0" width="11.0388159" height="22.0633553"/>
                                    <rect id="Rectangle-Copy-35" x="44.1552636" y="0" width="11.0388159" height="22.0633553"/>
                                    <rect id="Rectangle-Copy-38" x="0" y="33.0950329" width="11.0388159" height="22.0633553"/>
                                    <rect id="Rectangle-Copy-37" x="22.0776318" y="33.0950329" width="11.0388159" height="22.0633553"/>
                                    <rect id="Rectangle-Copy-36" x="44.1552636" y="33.0950329" width="11.0388159" height="22.0633553"/>
                                    <rect id="Rectangle-Copy-41" x="0" y="66.1900658" width="11.0388159" height="22.0633553"/>
                                    <rect id="Rectangle-Copy-40" x="22.0776318" y="66.1900658" width="11.0388159" height="22.0633553"/>
                                    <rect id="Rectangle-Copy-39" x="44.1552636" y="66.1900658" width="11.0388159" height="22.0633553"/>
                                    <rect id="Rectangle-Copy-44" x="0" y="99.2850988" width="11.0388159" height="22.0633553"/>
                                    <rect id="Rectangle-Copy-43" x="22.0776318" y="99.2850988" width="11.0388159" height="22.0633553"/>
                                    <rect id="Rectangle-Copy-42" x="44.1552636" y="99.2850988" width="11.0388159" height="22.0633553"/>
                                </g>
                                <line x1="299.151911" y1="-7.88057961e-15" x2="299.151911" y2="103.69777" id="Path-129-Copy-8" stroke="#EEEBFF"/>
                                <line x1="332.268359" y1="-7.88057961e-15" x2="332.268359" y2="103.69777" id="Path-129-Copy-9" stroke="#EEEBFF"/>
                                <line x1="221.8802" y1="-7.88057961e-15" x2="221.8802" y2="255.934921" id="Path-129-Copy-2" stroke="#EEEBFF"/>
                                <line x1="133.569672" y1="-7.88057961e-15" x2="133.569672" y2="255.934921" id="Path-129-Copy-6" stroke="#EEEBFF"/>
                                <line x1="89.4144088" y1="236.077901" x2="266.608323" y2="236.077901" id="Path-189-Copy-9" stroke="#FFFFFF"/>
                                <polygon id="Rectangle" fill="#008cddb8" points="154.543423 208.498707 200.906449 208.498707 200.906449 255.934921 154.543423 255.934921"/>
                                <polygon id="Rectangle-Copy-33" fill="#EEEBFF" points="89.4144088 0 266.035463 0 266.035463 37.507704 89.4144088 37.507704"/>
                                <line x1="177.724936" y1="-7.88057961e-15" x2="177.724936" y2="255.934921" id="Path-129-Copy-4" stroke="#EEEBFF"/>
                                <line x1="89.4144088" y1="59.5710593" x2="332.268359" y2="59.5710593" id="Path-189-Copy" stroke="#FFFFFF"/>
                                <line x1="89.4144088" y1="103.69777" x2="332.268359" y2="103.69777" id="Path-189-Copy-3" stroke="#FFFFFF"/>
                                <line x1="89.4144088" y1="147.82448" x2="266.608323" y2="147.82448" id="Path-189-Copy-5" stroke="#FFFFFF"/>
                                <path d="M131.361909,6.61900658 C137.458479,6.61900658 142.400725,11.5580569 142.400725,17.6506842 C142.400725,23.7433115 137.458479,28.6823619 131.361909,28.6823619 C125.26534,28.6823619 120.323093,23.7433115 120.323093,17.6506842 C120.323093,11.5580569 125.26534,6.61900658 131.361909,6.61900658 Z M132.190193,11.4859232 L130.144019,11.4859232 C129.884225,11.4859232 129.673619,11.6965284 129.673619,11.9563231 L129.673619,11.9563231 L129.673159,15.9629232 L125.663559,15.9634861 C125.403764,15.9634861 125.193159,16.1740913 125.193159,16.433886 L125.193159,16.433886 L125.193159,18.4781281 C125.193159,18.7379228 125.403764,18.9485281 125.663559,18.9485281 L125.663559,18.9485281 L129.673159,18.9479232 L129.673619,22.955691 C129.673619,23.2154857 129.884225,23.426091 130.144019,23.426091 L130.144019,23.426091 L132.190193,23.426091 C132.449988,23.426091 132.660593,23.2154857 132.660593,22.955691 L132.660593,22.955691 L132.660159,18.9479232 L136.670653,18.9485281 C136.930448,18.9485281 137.141053,18.7379228 137.141053,18.4781281 L137.141053,18.4781281 L137.141053,16.433886 C137.141053,16.1740913 136.930448,15.9634861 136.670653,15.9634861 L136.670653,15.9634861 L132.660159,15.9629232 L132.660593,11.9563231 C132.660593,11.6965284 132.449988,11.4859232 132.190193,11.4859232 L132.190193,11.4859232 Z" id="Combined-Shape" fill="#008cddb8"/>
                                <text id="HOSPITAL" font-family="Arial-Black, Arial Black" font-size="13.5" font-weight="700" letter-spacing="0.592105311" fill="#008cddb8">
                                    <tspan x="146.816252" y="25.1373134">SYNERGY</tspan>
                                </text>
                                <line x1="89.4144088" y1="191.951191" x2="266.608323" y2="191.951191" id="Path-189-Copy-7" stroke="#FFFFFF"/>
                                <g id="Group-14" transform="translate(17.662105, 119.142119)" fill="#77c5ff">
                                    <rect id="Rectangle" x="0" y="0" width="11.0388159" height="22.0633553"/>
                                    <rect id="Rectangle-Copy-34" x="22.0776318" y="0" width="11.0388159" height="22.0633553"/>
                                    <rect id="Rectangle-Copy-35" x="44.1552636" y="0" width="11.0388159" height="22.0633553"/>
                                    <rect id="Rectangle-Copy-38" x="0" y="33.0950329" width="11.0388159" height="22.0633553"/>
                                    <rect id="Rectangle-Copy-37" x="22.0776318" y="33.0950329" width="11.0388159" height="22.0633553"/>
                                    <rect id="Rectangle-Copy-36" x="44.1552636" y="33.0950329" width="11.0388159" height="22.0633553"/>
                                    <rect id="Rectangle-Copy-41" x="0" y="66.1900658" width="11.0388159" height="22.0633553"/>
                                    <rect id="Rectangle-Copy-40" x="22.0776318" y="66.1900658" width="11.0388159" height="22.0633553"/>
                                    <rect id="Rectangle-Copy-39" x="44.1552636" y="66.1900658" width="11.0388159" height="22.0633553"/>
                                    <rect id="Rectangle-Copy-44" x="0" y="99.2850988" width="11.0388159" height="22.0633553"/>
                                    <rect id="Rectangle-Copy-43" x="22.0776318" y="99.2850988" width="11.0388159" height="22.0633553"/>
                                    <rect id="Rectangle-Copy-42" x="44.1552636" y="99.2850988" width="11.0388159" height="22.0633553"/>
                                </g>
                            </g>
                            <g id="Customer-Service" transform="translate(50.778553, 0.133382)">
                                <g id="Head" transform="translate(51.832899, 0.000000)">
                                    <path fill="darkgoldenrod" d="M14.8056367,62.8205419 C8.76899872,46.1630658 8.76899872,31.4810025 14.8056367,18.7743522 C23.8605938,-0.285623336 45.9989823,-1.0247478 60.4050851,3.89005742 C74.811188,8.80486264 83.4711679,21.191985 77.8205771,56.797423 C77.3616887,59.6889652 75.8420333,66.1532311 73.2616109,76.1902206 L81.6998061,108.15088 C92.9586251,135.002017 80.04171,148.427585 42.9490608,148.427585 C5.8564116,148.427585 -6.2190048,135.002017 6.72281161,108.15088 L18.42491,76.1902206 L14.8056367,62.8205419 Z" id="Hair"/>
                                    <g id="Face" transform="translate(10.426019, 17.369159)">
                                        <path d="M15.3465466,73.9493828 L55.822248,73.9493828 L55.822248,100.377906 L65.5803856,103.566099 C71.9976441,123.926686 61.818632,135.160745 35.0433492,137.268274 C8.26806642,139.375804 -1.24925462,128.332557 6.49138611,104.138533 L15.3465466,100.377906 L15.3465466,73.9493828 Z" id="Path-71" fill="#FDBBA4"/>
                                        <path d="M15.3465466,73.9493828 L15.3465466,100.377906 C25.6211935,97.4958983 33.8089558,94.2359156 39.9098334,90.5979578 C46.0107111,86.96 51.3739699,81.7348038 55.9996099,74.9223691 L15.3465466,73.9493828 Z" id="Path-72" fill="#E9A38B"/>
                                        <path d="M2.69214081,39.4282639 C7.27013044,68.1255794 16.4030494,83.7151863 30.0908978,86.1970846 C50.6226704,89.9199321 61.7028433,73.1841237 67.3945576,39.4282639 C67.2644552,35.4990785 65.1930239,32.0105587 61.1802639,28.9627045 C55.161124,24.3909231 32.6988858,24.4654225 20.4257424,5.68434189e-14 C17.006069,14.1474076 14.6130626,22.492903 13.2467234,25.0364862 C11.2425462,28.7674717 7.72435199,33.5647309 2.69214081,39.4282639 Z" id="Path-63" fill="#FDBBA4"/>
                                        <line x1="59.6096023" y1="42.8581703" x2="67.3945576" y2="39.4282639" id="Path-78" stroke="#062721" stroke-width="1.19999993"/>
                                        <line x1="-9.39930232e-15" y1="42.8581703" x2="7.7849553" y2="39.4282639" id="Path-78-Copy" stroke="#062721" stroke-width="1.19999993" transform="translate(3.892478, 41.143217) scale(-1, 1) translate(-3.892478, -41.143217) "/>
                                        <path d="M28.3893283,66.2407484 L44.2852223,66.2407484 C43.2535987,70.4973039 40.604283,72.6255816 36.3372753,72.6255816 C32.0702676,72.6255816 29.4209519,70.4973039 28.3893283,66.2407484 Z" id="Path-75" fill="#FFFFFF"/>
                                        <path d="M33.9643663,42.3605348 C32.9844974,50.7918779 32.7395302,55.7474935 33.2294646,57.2273818 C33.7193991,58.70727 35.6384412,59.1750522 38.986591,58.6307285" id="Path-76" stroke="#062721" stroke-width="1.19999993"/>
                                        <ellipse id="Oval-Copy-3" fill="#062721" cx="47.6876819" cy="43.0236455" rx="2.64931566" ry="2.64760248"/>
                                        <rect id="Rectangle" stroke="#062721" stroke-width="1.19999993" x="7.94794698" y="37.7284406" width="22.5191831" height="10.5904099" rx="4.79999971"/>
                                        <rect id="Rectangle-Copy-10" stroke="#062721" stroke-width="1.19999993" x="37.0904192" y="37.7284406" width="22.5191831" height="10.5904099" rx="4.79999971"/>
                                        <path d="M30.4671301,43.0236455 C31.7702562,42.5823784 33.9780192,42.5823784 37.0904192,43.0236455" id="Path-77" stroke="#062721" stroke-width="1.19999993"/>
                                    </g>
                                    <g id="earphone" transform="translate(0.776518, 0.821749)">
                                        <path d="M79.8302348,48.6626519 C79.9357701,47.1607261 79.9996857,45.6118588 80.0202095,44.0154396 C80.4129535,13.4661895 63.8434896,0 44.090605,0 C24.3377204,0 8.18245218,15.1016495 8.18245218,43.6854408 C8.18245218,45.3927246 8.24222973,47.05191 8.358853,48.6626519" id="Path" stroke="#1C154A" stroke-width="3.59999979"/>
                                        <path d="M4.22057364,52.9518311 L4.47908085,52.9518625 C5.87059971,52.9526417 6.99860658,54.0806485 6.99938595,55.4721674 L7.00086087,67.6419895 C7.00164012,69.0337468 5.87353457,70.1621259 4.48177717,70.1622945 C4.48157362,70.1622946 4.48137008,70.1622946 4.4811666,70.161684 L4.2226594,70.1616527 C2.83114054,70.1608734 1.70313366,69.0328666 1.7023543,67.6413478 L1.70087938,55.4715256 C1.70010013,54.0797683 2.82820568,52.9513893 4.21996308,52.9512206 C4.22016662,52.9512206 4.22037017,52.9512206 4.22057364,52.9518311 Z" id="Rectangle-Copy-8" fill="#1C154A" transform="translate(4.350870, 61.556758) rotate(-11.000000) translate(-4.350870, -61.556758) "/>
                                        <path d="M85.0247012,52.9518311 L85.2832085,52.9518625 C86.6747273,52.9526417 87.8027342,54.0806485 87.8035135,55.4721674 L87.8049885,67.6419895 C87.8057677,69.0337468 86.6776622,70.1621259 85.2859048,70.1622945 C85.2857012,70.1622946 85.2854977,70.1622946 85.2852942,70.161684 L85.026787,70.1616527 C83.6352681,70.1608734 82.5072613,69.0328666 82.5064819,67.6413478 L82.505007,55.4715256 C82.5042277,54.0797683 83.6323333,52.9513893 85.0240907,52.9512206 C85.0242942,52.9512206 85.0244978,52.9512206 85.0247012,52.9518311 Z" id="Rectangle-Copy-9" fill="#1C154A" transform="translate(85.154998, 61.556758) scale(-1, 1) rotate(-11.000000) translate(-85.154998, -61.556758) "/>
                                        <path d="M76.1974006,70.5085593 C74.433848,80.476641 68.8367307,85.4606818 59.4060486,85.4606818" id="Path-74" stroke="#1C154A" stroke-width="1.19999993"/>
                                        <path d="M8.54929435,46.332663 L9.42168141,46.3327687 C11.7408796,46.3340675 13.6208912,48.2140789 13.6221902,50.5332771 L13.6245414,69.9337586 C13.6258401,72.2533543 11.7456641,74.1339861 9.42606832,74.1342672 C9.42572907,74.1342673 9.42538983,74.1342673 9.4250507,74.1332496 L8.55266364,74.1331439 C6.23346541,74.1318452 4.35345384,72.2518337 4.3521549,69.9326355 L4.34980365,50.532154 C4.34850492,48.2125584 6.22868094,46.3319265 8.54827674,46.3316454 C8.54861598,46.3316454 8.54895523,46.3316454 8.54929435,46.332663 Z" id="Rectangle" fill="#1C154A" transform="translate(8.987173, 60.232956) rotate(-11.000000) translate(-8.987173, -60.232956) "/>
                                        <path d="M52.699596,83.399478 L60.6501128,83.399478 C61.7467856,83.399478 62.6358146,84.288507 62.6358146,85.3851798 C62.6358146,86.4818527 61.7467856,87.3708817 60.6501128,87.3708817 L52.699596,87.3708817 C51.6029232,87.3708817 50.7138942,86.4818527 50.7138942,85.3851798 C50.7138942,84.288507 51.6029232,83.399478 52.699596,83.399478 Z" id="Rectangle" fill="#1C154A"/>
                                        <path d="M80.0808171,46.332663 L80.9532042,46.3327687 C83.2724024,46.3340675 85.152414,48.2140789 85.1537129,50.5332771 L85.1560642,69.9337586 C85.1573629,72.2533543 83.2771869,74.1339861 80.9575911,74.1342672 C80.9572519,74.1342673 80.9569126,74.1342673 80.9565735,74.1332496 L80.0841864,74.1331439 C77.7649882,74.1318452 75.8849766,72.2518337 75.8836777,69.9326355 L75.8813264,50.532154 C75.8800277,48.2125584 77.7602037,46.3319265 80.0797995,46.3316454 C80.0801388,46.3316454 80.080478,46.3316454 80.0808171,46.332663 Z" id="Rectangle-Copy-7" fill="#1C154A" transform="translate(80.518695, 60.232956) scale(-1, 1) rotate(-11.000000) translate(-80.518695, -60.232956) "/>
                                    </g>
                                </g>
                                <g id="Body" transform="translate(0.000000, 120.935258)">
                                    <path d="M18.9265588,27.8215292 L54.4851722,2.97967508 C71.2779786,22.7275742 86.8647575,32.4098644 101.245509,32.0265455 C115.62626,31.6432266 129.929942,21.9609364 144.156552,2.97967508 L173.592373,27.8215292 L140.333177,129.89275 L68.8016542,132.898898 L18.9265588,27.8215292 Z" id="Path-73" fill="#FFFFFF"/>
                                    <path d="M70.0438733,0 L101.245509,123.368528 L127.839304,0 C149.885035,5.86487791 165.136058,12.3053445 173.592373,19.3213998 C182.048688,26.337455 189.975903,66.4281858 197.374017,139.593592 L0,139.593592 C10.3800367,70.3066136 17.4852079,30.2158829 21.3155136,19.3213998 C25.1458192,8.42691664 41.3886058,1.98645005 70.0438733,0 Z" id="Path-81" fill="#3AABCC"/>
                                    <polyline id="Path-11" stroke="#062721" stroke-width="1.19999993" points="62.258918 5.79876571 54.391524 54.8624069 73.6823442 54.8624069 64.9510588 64.7705599 101.245509 132.898898 133.520856 64.7705599 124.276798 54.8624069 143.063046 54.8624069 132.636468 5.79876571"/>
                                    <line x1="43.8386567" y1="139.593592" x2="43.8386567" y2="67.9392863" id="Path-13" stroke="#062721" stroke-width="1.19999993"/>
                                    <line x1="156.434572" y1="139.593592" x2="156.434572" y2="67.9392863" id="Path-13-Copy" stroke="#062721" stroke-width="1.19999993"/>
                                </g>
                                <ellipse id="Oval" fill="#062721" cx="82.1287854" cy="60.3928046" rx="2.64931566" ry="2.64760248"/>
                            </g>
                            <g id="Computer" transform="translate(0.000000, 176.640224)">
                                <path d="M6,0 L134.192962,0 C137.50667,-6.08718376e-16 140.192962,2.6862915 140.192962,6 L140.192962,83.8407501 L140.192962,83.8407501 L0,83.8407501 L0,6 C-4.05812251e-16,2.6862915 2.6862915,6.08718376e-16 6,0 Z" id="Rectangle" fill="#AEAEF1"/>
                                <polygon id="Rectangle" fill="#1C154A" points="55.1940795 56.261556 84.9988825 56.261556 84.9988825 83.8407501 55.1940795 83.8407501"/>
                            </g>
                        </g>
                    </g>
                </g>
            </g>
        </g>
        
    </g>
</svg>