<svg xmlns="http://www.w3.org/2000/svg" xmlns:xlink="http://www.w3.org/1999/xlink" width="1440" height="1024" viewBox="0 0 1440 1024">
  <defs>
    <clipPath id="clip-path">
      <rect id="Rectangle_1" data-name="Rectangle 1" width="1920" height="1080" fill="none"/>
    </clipPath>
    <linearGradient id="linear-gradient" x1="0.904" y1="0.343" x2="0.249" y2="0.106" gradientUnits="objectBoundingBox">
      <stop offset="0" stop-color="#c7dbfb"/>
      <stop offset="1" stop-color="#fff"/>
    </linearGradient>
    <linearGradient id="linear-gradient-2" x1="1.141" y1="0.235" x2="0.5" y2="0.462" xlink:href="#linear-gradient"/>
    <clipPath id="clip-Dentist_4">
      <rect width="1920" height="1080"/>
    </clipPath>
  </defs>
  <g id="Dentist_4" data-name="Dentist 4" clip-path="url(#clip-Dentist_4)">
    <rect width="1440" height="1024" fill="#fff"/>
    <g id="Background">
      <rect id="Background-2" data-name="Background" width="1440" height="1024" fill="#fff"/>
    </g>
    <g id="Artwork">
      <g id="Group_6" data-name="Group 6" clip-path="url(#clip-path)">
        <circle id="Ellipse_1" data-name="Ellipse 1" cx="223.794" cy="223.794" r="223.794" transform="translate(479.135 796.089)" fill="#1ba3f3"/>
        <circle id="Ellipse_2" data-name="Ellipse 2" cx="63.114" cy="63.114" r="63.114" transform="translate(478.854 313.801)" fill="#ffaa2fad"/>
        <path id="Path_1" data-name="Path 1" d="M618.458,107.473c-1.208,27.524-2.814,56.008-15.41,80.51-19.375,37.689-60.193,58.174-97.287,78.667-45.387,25.075-90.47,55.37-116.219,100.377-30.708,53.677-29.115,119.023-31.1,180.831s-10.993,129.137-55.6,171.962C276.614,745,240.663,758.777,216.3,785.762c-47.529,52.642-36.842,137.26-75.215,196.906-24.1,37.455-64.83,60.711-105.63,78.566a700.451,700.451,0,0,1-184.465,52.057c-24.086,3.335-51.606,4.384-69.4-12.192-16.806-15.658-18.645-41.2-19.369-64.162l-4.133-131.176Q-253.3,544.2-264.693,182.632c-1.938-61.5-3.777-123.96,11.392-183.59,2.365-9.3,5.347-18.864,11.959-25.813,11.666-12.262,30.759-12.851,47.655-11.868,74.746,4.348,148,22.929,222.57,29.615C158.875,2.632,289.365-22.049,419.877-21.235c32.062.2,64.194,1.8,96.226-.322,24.425-1.621,52.265-12.437,76.56-6.852,20.1,4.621,28.393,19.355,29.386,39.011C623.66,42.466,619.857,75.6,618.458,107.473Z" fill="url(#linear-gradient)"/>
        <g id="Group_1" data-name="Group 1">
          <path id="Path_2" data-name="Path 2" d="M97.862,1222.5v130.315l424.71-245.7,32.495-18.6,42.913-24.558,26.668-15.256v-.007L749.5,977.253V845.484L604.516,929.007l-58.4,33.639-14.393,8.292-29.552,17.026c.539.223,1.086.456,1.618.713-.532-.257-1.08-.489-1.618-.713l-1.158.664ZM506.394,990.495c-.077-.086-.162-.163-.244-.243C506.232,990.332,506.317,990.409,506.394,990.495Zm-2.061-1.539c-.134-.072-.268-.142-.4-.21C504.065,988.814,504.2,988.884,504.333,988.956Zm.554.319c-.118-.072-.237-.143-.359-.211C504.65,989.132,504.769,989.2,504.887,989.275Zm.537.36c-.1-.077-.212-.149-.321-.22C505.212,989.486,505.32,989.558,505.424,989.635Zm.506.4c-.091-.081-.188-.156-.284-.232C505.742,989.883,505.839,989.958,505.93,990.039Z" fill="#ecf3fe"/>
          <path id="Path_3" data-name="Path 3" d="M-57.38,1134.34,97.862,1222.5,501.009,988.628l1.158-.664,29.552-17.026,14.393-8.292,56.036-32.274,2.368-1.365L749.5,845.484,593.332,755.263l-98.24,57.261-21.814,12.71-5.591,3.261L155.521,1010.243l-20.316,11.84v.008l-41.26,24.049ZM435.906,856.55l-.287.044c-.155.015-.3.022-.45.037C435.412,856.6,435.656,856.579,435.906,856.55Zm145.011,85.883c.125-.531.243-1.069.354-1.608-.052.244-.1.494-.148.738C581.057,941.851,580.983,942.146,580.917,942.433Z" fill="#fff"/>
          <path id="Path_4" data-name="Path 4" d="M-57.38,1134.34v131.71l155.242,86.769V1222.5Z" fill="#d8e4fd"/>
          <path id="Path_5" data-name="Path 5" d="M-57.38,1047.335v87.005l151.325-88.2,41.26-24.049v-.008l20.316-11.84L467.687,828.495l5.591-3.261,21.814-12.71,98.24-57.261V672.736L456.687,750.778l-73.253,41.835Zm213.366-58.589c.428.059.848.118,1.276.17-.192-.022-.384-.037-.575-.059C156.45,988.828,156.222,988.783,155.986,988.746Z" fill="#ebf2ff"/>
          <path id="Path_6" data-name="Path 6" d="M212.3,451.784,593.332,672.736,456.687,750.778l-73.254,41.835L-57.38,1047.335-434.617,826.582Z" fill="#fff"/>
          <path id="Path_7" data-name="Path 7" d="M-434.617,826.582v219.932L-57.38,1266.049V1047.335Z" fill="#d8e4fd"/>
        </g>
        <g id="Group_2" data-name="Group 2">
          <path id="Path_8" data-name="Path 8" d="M125.872,363.409c1.712,9.716,7.26,18.435,14.157,25.48a14.743,14.743,0,0,1,1.166-1.615c1.726-2.08,3.821-3.63,5.311-6.049a13.02,13.02,0,0,1-5.452-5.2,6.892,6.892,0,0,1,.406-7.23,5.421,5.421,0,0,1,9.664,3.3c.457-.494.93-.981,1.417-1.446.169-.169.339-.331.509-.494.354-.339.708-.671,1.077-1,.2-.177.4-.354.6-.523.17-.155.34-.3.517-.443a2.416,2.416,0,0,1,.206-.17l.155-.133c.406-.331.819-.663,1.247-.981.14-.11.28-.214.421-.317.206-.162.42-.317.634-.472.546-.391,1.106-.775,1.674-1.151.325-.214.665-.428,1-.634.295-.185.6-.369.907-.546.288-.17.576-.332.871-.494a2.967,2.967,0,0,1,.273-.148l.243-.133c.066-.037.14-.074.207-.11.45-.244.907-.473,1.364-.694l.325-.155c.229-.11.457-.214.686-.317.1-.044.192-.088.288-.125a1.377,1.377,0,0,1,.162-.074.053.053,0,0,1,.037-.015c.111-.052.229-.1.347-.148a.271.271,0,0,1,.066-.029c.125-.059.258-.111.391-.162s.28-.118.428-.17c.266-.111.531-.214.8-.31a.605.605,0,0,1,.1-.037c.17-.066.332-.125.5-.184.015-.007.029-.007.044-.015.635-.221,1.276-.428,1.918-.612.222-.059.443-.126.664-.185.015-.007.037-.007.059-.014l.089-.022a.071.071,0,0,0,.036-.008c.155-.044.31-.081.473-.118a.542.542,0,0,1,.11-.029,1.96,1.96,0,0,1,.207-.052.571.571,0,0,1,.1-.03c.1-.022.185-.036.281-.059l.088-.022c.266-.059.531-.118.8-.162q.486-.1.974-.177a1.387,1.387,0,0,1,.169-.03.651.651,0,0,1,.162-.022,2,2,0,0,1,.295-.044c.251-.044.5-.074.753-.1.184-.022.362-.044.553-.059a.618.618,0,0,1,.133-.015c.044-.007.089-.007.133-.015.066-.007.133-.007.206-.014.118-.015.229-.023.347-.03a2.061,2.061,0,0,1,.207-.015c.2-.015.406-.022.6-.029a1.208,1.208,0,0,1,.236-.015c.081,0,.162-.007.236-.007.841-.03,1.689-.023,2.537.029,3.94.229,7.975,1.062,11.811.317.4-.073.782-.169,1.173-.28l.236-.066c4.08-1.3,7.591-5.777,5.887-9.694a11,11,0,0,0-2.663-3.349q-6.186-5.964-12.364-11.929c-3.069-2.958-6.241-5.99-10.195-7.583-5.968-2.4-12.726-1.181-18.989.287-6.351,1.491-12.873,3.313-18.243,6.861a27.482,27.482,0,0,0-3.77,2.973C126.728,342.938,124.161,353.694,125.872,363.409Z" fill="#2743b9"/>
          <path id="Path_9" data-name="Path 9" d="M146.5,381.227c-1.489,2.42-3.585,3.969-5.311,6.049l2.162,1.476a60.183,60.183,0,0,0,5.2,6.514c4.515,4.957,11.523,11.11,19.247,12.209a16.048,16.048,0,0,0,4.714.007,15.366,15.366,0,0,0,3.268-.848,27.579,27.579,0,0,0,3.29-1.49l.089-.045a27.147,27.147,0,0,0,6.875-5.193,28.64,28.64,0,0,0,2.294-2.707,113.651,113.651,0,0,0,4.759-30.851c.022-2.435-.059-4.921-.273-7.414-3.837.745-7.872-.089-11.811-.317-.848-.052-1.7-.059-2.538-.03-.073,0-.155.007-.236.007a1.211,1.211,0,0,0-.236.015c-.2.008-.4.015-.6.03a1.785,1.785,0,0,0-.206.015c-.118.007-.229.014-.347.029-.074.007-.14.007-.207.015-.044.007-.088.007-.132.015a.7.7,0,0,0-.133.014c-.192.015-.369.037-.553.059-.251.03-.5.059-.753.1a2.147,2.147,0,0,0-.295.044.6.6,0,0,0-.162.022,1.447,1.447,0,0,0-.17.029q-.486.078-.974.178c-.265.044-.531.1-.8.162l-.088.022-.089.022c-.066.015-.125.022-.192.037a.59.59,0,0,0-.1.029,1.774,1.774,0,0,0-.206.052.573.573,0,0,0-.111.03c-.17.037-.339.081-.509.125l-.088.022a.522.522,0,0,0-.06.015c-.221.059-.442.125-.663.184-.642.185-1.284.391-1.919.613-.014.007-.029.007-.043.014-.17.059-.333.118-.5.185a.565.565,0,0,0-.1.037c-.273.1-.538.2-.8.31-.147.051-.287.11-.428.169s-.265.1-.39.162a.265.265,0,0,0-.067.03c-.118.044-.236.1-.346.148a.062.062,0,0,0-.038.014,1.771,1.771,0,0,0-.162.074c-.1.037-.192.081-.287.125-.229.1-.458.207-.686.318-.111.051-.214.1-.325.155-.458.221-.915.45-1.365.693-.066.037-.14.074-.206.111l-.244.133a3.1,3.1,0,0,0-.273.147c-.295.162-.583.325-.87.494-.31.177-.613.362-.908.546-.339.207-.678.421-1,.635-.568.376-1.129.759-1.675,1.15-.213.155-.427.31-.634.473-.14.1-.28.206-.42.317-.428.317-.842.649-1.247.981l-.155.133a2.245,2.245,0,0,0-.207.169c-.177.141-.346.288-.516.443-.207.17-.406.347-.605.524-.369.324-.723.656-1.077,1-.17.162-.339.324-.509.494-.487.465-.959.952-1.416,1.446a5.421,5.421,0,0,0-9.664-3.3,6.888,6.888,0,0,0-.406,7.229A13.017,13.017,0,0,0,146.5,381.227Z" fill="#94acd8"/>
          <path id="Path_10" data-name="Path 10" d="M146.506,381.225c-1.49,2.419-3.585,3.969-5.311,6.049l2.161,1.475a60.125,60.125,0,0,0,5.2,6.514c2.943-3.452,4.006-8.778,6.883-14.451,2.788-5.5,6.093-11.966,12.29-14.172,6.993-2.5,14.717,1.645,22.065.583a14.681,14.681,0,0,0,3.3-.878c.022-2.434-.059-4.92-.273-7.414-3.836.745-7.871-.088-11.811-.317-.848-.052-1.7-.059-2.537-.029-.074,0-.155.007-.236.007a1.208,1.208,0,0,0-.236.015c-.2.007-.4.014-.6.029a2.061,2.061,0,0,0-.207.015c-.118.007-.229.015-.347.03-.073.007-.14.007-.206.014-.044.008-.089.008-.133.015a.618.618,0,0,0-.133.015c-.191.015-.369.037-.553.059-.251.029-.5.059-.753.1a2.368,2.368,0,0,0-.295.044.651.651,0,0,0-.162.022,1.387,1.387,0,0,0-.169.03q-.488.078-.974.177c-.295.052-.59.118-.885.184l-.089.023c-.1.022-.2.044-.3.066a1.607,1.607,0,0,0-.207.052.542.542,0,0,0-.11.029c-.17.037-.34.081-.509.126l-.089.022c-.022.007-.044.007-.059.014-.221.059-.442.126-.664.185-.642.184-1.283.391-1.918.612-.015.008-.029.008-.044.015-.17.059-.332.118-.5.184a.605.605,0,0,0-.1.037c-.273.1-.538.2-.8.31-.148.052-.288.111-.428.17s-.266.1-.391.162a.271.271,0,0,0-.066.029c-.118.045-.236.1-.347.148a.053.053,0,0,0-.037.015,1.377,1.377,0,0,0-.162.074c-.1.037-.192.081-.288.125-.229.1-.457.207-.686.317l-.325.155c-.457.221-.914.45-1.364.694-.074.036-.141.073-.207.11l-.243.133a2.967,2.967,0,0,0-.273.148c-.295.162-.583.324-.871.494-.31.177-.612.361-.907.546-.339.206-.679.42-1,.634-.568.376-1.128.76-1.674,1.151-.214.155-.428.31-.634.472-.141.1-.281.207-.421.317-.428.318-.841.65-1.247.981l-.155.133a2.416,2.416,0,0,0-.206.17c-.177.14-.347.288-.517.443-.206.169-.4.346-.6.523-.369.325-.723.657-1.077,1-.17.163-.34.325-.509.494-.487.465-.96.952-1.417,1.446a5.421,5.421,0,0,0-9.664-3.3,6.892,6.892,0,0,0-.406,7.23A13.02,13.02,0,0,0,146.506,381.225Z" fill="#5b81bf"/>
          <path id="Path_11" data-name="Path 11" d="M125.872,363.409c1.712,9.716,7.26,18.435,14.157,25.48a14.743,14.743,0,0,1,1.166-1.615c1.726-2.08,3.821-3.63,5.311-6.049a13.02,13.02,0,0,1-5.452-5.2,6.892,6.892,0,0,1,.406-7.23,5.421,5.421,0,0,1,9.664,3.3c.457-.494.93-.981,1.417-1.446.169-.169.339-.331.509-.494.354-.339.708-.671,1.077-1,.2-.177.4-.354.6-.523.17-.155.34-.3.517-.443a2.416,2.416,0,0,1,.206-.17l.155-.133c.406-.331.819-.663,1.247-.981.14-.11.28-.214.421-.317.206-.162.42-.317.634-.472.546-.391,1.106-.775,1.674-1.151.325-.214.665-.428,1-.634.295-.185.6-.369.907-.546.288-.17.576-.332.871-.494a2.967,2.967,0,0,1,.273-.148l.243-.133c.066-.037.14-.074.207-.11.45-.244.907-.473,1.364-.694l.325-.155c.229-.11.457-.214.686-.317a3.521,3.521,0,0,0-1.121-1.675,5.03,5.03,0,0,0-3.357-.619c-6.056.324-12.3,1.069-18.066-.812a11.5,11.5,0,0,1-6.44-4.551c-1.365-2.236-1.535-4.98-1.476-7.6a38.27,38.27,0,0,1,2.117-12.142,9.443,9.443,0,0,1,.539-1.166,27.482,27.482,0,0,0-3.77,2.973C126.728,342.938,124.161,353.694,125.872,363.409Z" fill="#152c9d"/>
          <path id="Path_12" data-name="Path 12" d="M131.646,405.527s6.721,6.234,11.774,23.865a24.122,24.122,0,0,0,21.342-8.543c.376-.457.568-.73.568-.73l1.947-9.959.524-2.685c-7.724-1.1-14.732-7.252-19.247-12.209a60.183,60.183,0,0,1-5.2-6.514l-2.162-1.476a14.789,14.789,0,0,0-1.165,1.616Z" fill="#5b81bf"/>
        </g>
        <g id="Group_3" data-name="Group 3">
          <path id="Path_13" data-name="Path 13" d="M387.386,508.865l3.585,10.49c10.741-7.547,21.615-13.412,32.245-15.8a89.505,89.505,0,0,1,13.928-2.117l-3.5-6.477a26.035,26.035,0,0,0-4.419-.332c-14.746.022-34.281,10.077-40.123,13.271C388,508.511,387.386,508.865,387.386,508.865Z" fill="#dde7fd"/>
          <path id="Path_14" data-name="Path 14" d="M440,462.107c-.8,11.5-5.1,22.41-10.771,32.518-14.747.024-34.282,10.082-40.123,13.272-1.11-.124-2.22-.29-3.314-.489.058-.406.108-.82.166-1.226.646-4.772,1.292-9.528,1.939-14.3,3.918.473,8.177-.828,10.654-3.9s2.7-7.97.008-10.861-8.169-2.7-10.215.671a15.194,15.194,0,0,0-5.716-20.919h-.009a13.888,13.888,0,0,0-2.17-1.011c-5.659-2.071-12.369-.746-17.547-3.836-.125-.074-.249-.157-.373-.24a11.569,11.569,0,0,1,.778-19.883c9.52-5.17,18.948-11.864,29.627-13.7a44.51,44.51,0,0,1,24.664,2.444,34.164,34.164,0,0,1,6.437,3.562C435.733,432.472,440.994,447.807,440,462.107Z" fill="#2743b9"/>
          <path id="Path_15" data-name="Path 15" d="M398.551,487.98c-2.477,3.074-6.736,4.375-10.654,3.9-.647,4.772-1.293,9.528-1.939,14.3a19.167,19.167,0,0,1-11.317-1.268,21.263,21.263,0,0,1-5.079-3.2A28.1,28.1,0,0,1,361.22,489.1c-2.246-6.752-2.3-14.068-1.475-21.135.638-5.435,1.773-10.795,2.784-16.18.058.041.124.083.182.116a2.129,2.129,0,0,0,.191.124c5.178,3.09,11.888,1.765,17.547,3.836a15.208,15.208,0,0,1,7.895,21.93c2.046-3.372,7.523-3.563,10.215-.671S401.036,484.907,398.551,487.98Z" fill="#94acd8"/>
          <path id="Path_16" data-name="Path 16" d="M440,462.107c-.8,11.5-5.1,22.41-10.771,32.518-14.747.024-34.282,10.082-40.123,13.272-1.11-.124-2.22-.29-3.314-.489.058-.406.108-.82.166-1.226.646-4.772,1.292-9.528,1.939-14.3,3.918.473,8.177-.828,10.654-3.9s2.7-7.97.008-10.861-8.169-2.7-10.215.671a15.194,15.194,0,0,0-5.716-20.919c2.675.538,5.194,2.079,7.613,3.181a31.158,31.158,0,0,0,20.7,2.154,24.031,24.031,0,0,0,15.849-13.048c2.85-6.479,2.079-14.573-2.453-20.016-2.328-2.792-5.675-5.145-6.743-8.5a34.164,34.164,0,0,1,6.437,3.562C435.733,432.472,440.994,447.807,440,462.107Z" fill="#152c9d"/>
          <path id="Path_17" data-name="Path 17" d="M398.551,487.98c-2.477,3.074-6.736,4.375-10.654,3.9-.647,4.772-1.293,9.528-1.939,14.3a19.167,19.167,0,0,1-11.317-1.268,21.263,21.263,0,0,1-5.079-3.2c5.038-3.5,8.865-8.732,12.643-13.5,1.707-2.154,3.463-4.4,4.167-7.066a27.5,27.5,0,0,0,.431-6.612c.05-3.363.5-6.967-1.185-9.883-2.2-3.828-7.116-4.938-11.457-5.758s-9.263-2.2-11.135-6.2a5.658,5.658,0,0,1-.315-.8,2.129,2.129,0,0,0,.191.124c5.178,3.09,11.888,1.765,17.547,3.836a15.208,15.208,0,0,1,7.895,21.93c2.046-3.372,7.523-3.563,10.215-.671S401.036,484.907,398.551,487.98Z" fill="#5b81bf"/>
        </g>
        <path id="Path_18" data-name="Path 18" d="M290.983,619.646l7.908,2.928s30.637,15.507,60.647-3.216a.029.029,0,0,1,.007-.015c7.93-4.95,15.817-12.29,23.083-22.942,10.143-14.865,13.6-26.233,13.219-34.665-.826-18.944-20.965-23.083-27.892-18.863a5.52,5.52,0,0,0-1.4,1.173c-7.008,8.417-25.591,62.4-63.8,59.422l-5.37-2.191a28.908,28.908,0,0,0-5.666,10.955A22.871,22.871,0,0,0,290.983,619.646Z" fill="#ffaa2f"/>
        <path id="Path_19" data-name="Path 19" d="M278.552,615.042l12.431,4.6c-.716-10.468,6.4-18.369,6.4-18.369l-6.2-2.538a26.661,26.661,0,0,0-.834-9.951,15.279,15.279,0,0,0-6-8.632c-8.594-5.783-9.641-4.559-9.641-4.559a52.317,52.317,0,0,0-10.468,9.391,28.908,28.908,0,0,0-4.788,7.791C255.6,602.6,268.564,615.212,278.552,615.042Z" fill="#94acd8"/>
        <path id="Path_20" data-name="Path 20" d="M255.669,567.372l2.464,3.408s2.825,14.186,6.1,14.208A52.317,52.317,0,0,1,274.7,575.6s1.047-1.224,9.641,4.559a15.279,15.279,0,0,1,6,8.632s6.536-19.409-14.5-27.126l-2.626-3.5s-.642-1.778-1.852-4.957C271.36,553.2,258.022,560.283,255.669,567.372Z" fill="#94acd8"/>
        <line id="Line_1" data-name="Line 1" x2="0.007" transform="translate(264.234 584.988)" fill="none" stroke="#5b81bf" stroke-miterlimit="10" stroke-width="1"/>
        <path id="Path_21" data-name="Path 21" d="M198.357,488.216l57.312,79.156c.76-2.3,2.685-4.6,4.935-6.661a59.844,59.844,0,0,1,10.756-7.51c-8.277-21.77-43.259-109.166-82.062-139.478a62.457,62.457,0,0,0-7.85-5.3C181.729,409.105,201.359,455.979,198.357,488.216Z" fill="#fff"/>
        <path id="Path_22" data-name="Path 22" d="M448.718,939.558c9.147,10.6,18.063,23.254,16.887,37.208a16.973,16.973,0,0,1-2.662,8.321c-2.05,2.948-5.282,4.8-8.08,7.05a32.914,32.914,0,0,0-10.968,16.587c-1.152,4.086-1.556,8.512-3.893,12.057a22.215,22.215,0,0,1-6.908,6.121c-19.414,12.367-43.1,16.58-66.118,16.192-9.259-.156-19.136-1.256-26.292-7.133-8.2-6.733-11.113-18.366-19.343-25.057-7.255-5.9-17.491-7-24.84-12.781-5.5-4.321-8.8-10.792-11.765-17.121-2.178-4.643-4.312-9.508-4.293-14.636.024-6.359,3.348-12.212,6.963-17.443,24.173-34.974,66.877-56.3,109.363-54.617,10.066.4,18.094,11.254,25.033,17.585A323.333,323.333,0,0,1,448.718,939.558Z" fill="#ebf2ff"/>
        <path id="Path_23" data-name="Path 23" d="M188.227,820.181c9.147,10.6,18.062,23.253,16.887,37.207a16.98,16.98,0,0,1-2.662,8.322c-2.05,2.947-5.282,4.8-8.08,7.049A32.912,32.912,0,0,0,183.4,889.346c-1.152,4.086-1.556,8.513-3.894,12.057a22.2,22.2,0,0,1-6.907,6.121c-19.415,12.368-43.1,16.581-66.119,16.193-9.258-.157-19.135-1.257-26.291-7.134C72,909.85,69.08,898.217,60.85,891.526c-7.255-5.9-17.491-7-24.841-12.781-5.495-4.321-8.794-10.792-11.764-17.121-2.178-4.643-4.312-9.508-4.293-14.636.024-6.359,3.348-12.211,6.963-17.443,24.173-34.974,66.877-56.3,109.363-54.617,10.066.4,18.094,11.254,25.033,17.585A323.2,323.2,0,0,1,188.227,820.181Z" fill="#ebf2ff"/>
        <path id="Path_24" data-name="Path 24" d="M359.545,720.04c40.338,13.706,71.048,10.335,90.3,4.692,15.035-4.4,23.083-10.2,23.282-10.336a.021.021,0,0,0,.008-.014c.044-.229.088-.458.125-.686,20.147-109.35-36.118-212.26-36.118-212.26a89.505,89.505,0,0,0-13.928,2.117c-10.63,2.39-21.5,8.255-32.245,15.8,0,0-19.682,16.215-23.016,23.518,10.01-6.094,47.6,5.26,14.673,53.528a83.76,83.76,0,0,1-16.665,18.376,64.73,64.73,0,0,1-6.418,4.566.029.029,0,0,0-.007.015C359.029,620.708,359.545,720.04,359.545,720.04Z" fill="#ffaa2f"/>
        <path id="Path_25" data-name="Path 25" d="M370.5,859.931c2.678,24.823,5.474,49.507,7.967,70.937.73,6.33,1.439,12.364,2.1,18.044v.008c2.5,21.15,4.464,37.276,5.319,44.277.31,2.478.472,3.814.472,3.814,21.564,6.307,35.764,0,35.764,0S404.3,859,415.537,810.468a48.31,48.31,0,0,1,2.928-9.089c16.849-36.811,31.382-76.647,31.382-76.647-19.254,5.643-49.964,9.014-90.3-4.692C358.062,736.439,363.9,798.627,370.5,859.931Z" fill="#dde7fd"/>
        <path id="Path_26" data-name="Path 26" d="M415.537,810.468c23.555-27.5,57.069-95.024,57.592-96.072-.2.133-8.247,5.932-23.282,10.336,0,0-14.533,39.836-31.382,76.647A48.31,48.31,0,0,0,415.537,810.468Z" fill="#c6d9fc"/>
        <path id="Path_27" data-name="Path 27" d="M353.761,918.128s2.612,10.763,24.706,12.74c-2.493-21.43-5.289-46.114-7.967-70.937l-16.133,56.095Z" fill="#c6d9fc"/>
        <path id="Path_28" data-name="Path 28" d="M351.482,1014.362l58.9,17.358c7.119-.65,10.586-5.555,12.121-11.479,2.618-10.121-.377-23.23-.377-23.23s-14.2,6.307-35.764,0c0,0-.162-1.336-.472-3.814-.324.081-21.489,5.606-28.1,10.121a14.778,14.778,0,0,0-4.492,4.729A12.269,12.269,0,0,0,351.482,1014.362Z" fill="#b6cfff"/>
        <path id="Path_29" data-name="Path 29" d="M385.888,993.2l.008-.008" fill="none" stroke="#5b81bf" stroke-miterlimit="10" stroke-width="1"/>
        <path id="Path_30" data-name="Path 30" d="M313.262,924.789s27.346,20.332,46.047,28.4c18.258,7.871,21.135-3.718,21.26-4.264v-.008c-.081-.678-.162-1.357-.236-2.043-.6-5.075-1.224-10.424-1.866-16-22.094-1.977-24.706-12.74-24.706-12.74l.606-2.1H320.624l-3.659,4.352Z" fill="#b6cfff"/>
        <path id="Path_31" data-name="Path 31" d="M119.518,412.926c16.968,19.284,42.957,130.766,42.957,130.766a74.6,74.6,0,0,0,1.38-16.65c-.487-38.862-20.435-97.65-20.435-97.65-5.053-17.631-11.774-23.865-11.774-23.865S126.268,408.729,119.518,412.926Z" fill="#dde7fd"/>
        <path id="Path_32" data-name="Path 32" d="M79.247,624.153s1.416.745,4.057,1.911a171.017,171.017,0,0,0,50.223,12.858,163.628,163.628,0,0,0,30.017.3,153.757,153.757,0,0,0,26.7-4.588q5.112-1.35,10.313-3.121s-7.716-119.9-2.2-143.3c3-32.237-16.628-79.111-16.909-79.79l-.007-.007-5.658-1.785a15.366,15.366,0,0,1-3.268.848,16.048,16.048,0,0,1-4.714-.007l-.524,2.685s16.635,79.628-4.8,133.532c0,0-25.989-111.482-42.957-130.766-10.128,6.308-23.341,14.865-26.077,18.229,8.062-.354,16.133,15.425,18.936,31.552,1.461,8.38-4.994,20.161-11.537,29.537-3.077,4.434-6.182,8.329-8.476,11.081C90.851,545.964,87.332,596.806,79.247,624.153Zm78.2-62.616c0,2.611-1.564,4.736-3.505,4.736s-3.5-2.125-3.5-4.736,1.572-4.736,3.5-4.736S157.444,558.925,157.444,561.537Zm-7.687,31.979c0-2.611,1.571-4.728,3.5-4.728s3.512,2.117,3.512,4.728-1.572,4.736-3.512,4.736S149.757,596.135,149.757,593.516Z" fill="#fff"/>
        <path id="Path_33" data-name="Path 33" d="M48.743,639.778,55.67,637.4l9.472-3.253,8.506-2.929,2.176-.745S70.793,547.8,88.705,507.537c0,0,1.46-1.579,3.659-4.212,7.155-8.573,22.16-28.277,20.013-40.618-2.8-16.127-10.874-31.906-18.936-31.552,0,0-9.207,8.1-19.365,28.9C59.6,489.707,43.181,545.16,48.743,639.778Z" fill="#fff"/>
        <path id="Path_34" data-name="Path 34" d="M55.67,637.4s.258,19.365,2.191,31.463C59.174,677.1,72.232,683.317,80.4,686.43a1.646,1.646,0,0,0,1.948-2.457c-7.1-10.726,1.276-25.635,1.276-25.635a37.1,37.1,0,0,0,5.422,3.32c2.471,1.291,5.194,2.545,7.488,3.556a1.5,1.5,0,0,0,1.785-2.295l-11.442-14.7-13.234-17Z" fill="#94acd8"/>
        <path id="Path_35" data-name="Path 35" d="M98.324,662.919a1.5,1.5,0,0,1-1.785,2.295c-2.294-1.011-5.017-2.265-7.488-3.556L101.858,740.9c-15.249,39.969.524,114.647.524,114.647a7.675,7.675,0,0,0,1.807,2.242c2.383,2.066,6.1,3.076,10.121,3.489,9.258.93,20.154-1.349,20.154-1.349s-.214-8.964-.258-21.851v-.008c-.037-9.287.015-20.6.28-32.09v-.007c.059-2.582.133-5.171.222-7.746.671-20.316,2.147-39.784,5.193-47.862,7.54-19.985,23.643-111.143,23.643-111.143a165.221,165.221,0,0,1-37.246-1.18A169.567,169.567,0,0,1,83.3,626.064l3.578,22.153Z" fill="#3749b7"/>
        <path id="Path_36" data-name="Path 36" d="M134.708,798.229s28.505-51.543,38.67-73.63c9.177-19.94,15.529-77.194,16.672-88.141.126-1.18.192-1.822.192-1.822a153.757,153.757,0,0,1-26.7,4.588s-16.1,91.158-23.643,111.143c-1.239,3.3-2.228,8.491-2.995,14.857C135.785,774.468,135.106,786.2,134.708,798.229Z" fill="#3749b7"/>
        <path id="Path_37" data-name="Path 37" d="M143.42,429.392s19.948,58.788,20.435,97.65c5.333-30.615,1.667-94.175.907-106.193A24.122,24.122,0,0,1,143.42,429.392Z" fill="#1ba3f3"/>
        <path id="Path_38" data-name="Path 38" d="M164.636,418.865s.045.693.126,1.984" fill="none" stroke="#5b81bf" stroke-miterlimit="10" stroke-width="1"/>
        <path id="Path_39" data-name="Path 39" d="M162.475,543.692c21.437-53.9,4.8-133.532,4.8-133.532l-1.947,9.959s-.192.273-.568.73c.76,12.018,4.426,75.578-.907,106.193A74.6,74.6,0,0,1,162.475,543.692Z" fill="#dde7fd"/>
        <path id="Path_40" data-name="Path 40" d="M150.435,561.537c0,2.611,1.572,4.736,3.5,4.736s3.505-2.125,3.505-4.736-1.564-4.736-3.505-4.736S150.435,558.925,150.435,561.537Z" fill="#dde7fd"/>
        <path id="Path_41" data-name="Path 41" d="M149.757,593.516c0,2.619,1.571,4.736,3.5,4.736s3.512-2.117,3.512-4.736-1.572-4.728-3.512-4.728S149.757,590.905,149.757,593.516Z" fill="#dde7fd"/>
        <path id="Path_42" data-name="Path 42" d="M103.436,871.5s21.91,41.37,34.886,41.894c8.314.339,11.737-5.739,13.117-10.143a21.146,21.146,0,0,0,.907-4.405l-17.882-38.913s-15.049,3.142-24.809.531a13.794,13.794,0,0,1-5.466-2.671Z" fill="#28349d"/>
        <path id="Path_43" data-name="Path 43" d="M134.206,838.072v.008a86.441,86.441,0,0,0,18.841,9.929c10.874,4.3,15.728-3.253,17.587-7.8a19.7,19.7,0,0,0,.988-3.061l-37.136-31.161c-.073,3.239-.132,6.463-.177,9.627C134.2,823.687,134.176,831.4,134.206,838.072Z" fill="#28349d"/>
        <path id="Path_44" data-name="Path 44" d="M198.357,488.216l57.312,79.156c.76-2.3,2.685-4.6,4.935-6.661-3.12-3.209-6.565-6.241-8.712-8.956-13.087-16.547-26.321-33.337-34.635-52.724-11.663-27.206-13.087-58.33-27.369-84.26-.192-.347-.391-.7-.59-1.048a62.457,62.457,0,0,0-7.85-5.3C181.729,409.105,201.359,455.979,198.357,488.216Z" fill="#ecf3fe"/>
        <path id="Path_45" data-name="Path 45" d="M79.247,624.153s1.416.745,4.057,1.911a171.017,171.017,0,0,0,50.223,12.858c-.287-.376-.583-.738-.885-1.077-5.784-6.529-13.448-11.176-19.195-17.735-7.458-8.513-11.191-19.659-13.574-30.732a202.029,202.029,0,0,1-4.005-47.6,379.569,379.569,0,0,1,3.644-41.7c.3-2.25.87-5.017,1.328-7.835-3.077,4.434-6.182,8.329-8.476,11.081C90.851,545.964,87.332,596.806,79.247,624.153Z" fill="#ecf3fe"/>
        <path id="Path_46" data-name="Path 46" d="M48.743,639.778,55.67,637.4l9.472-3.253c-2.678-3.564-5.909-6.389-7.185-11.184-4.611-12.689-4.161-26.594-3.216-40.057a625.149,625.149,0,0,1,14.466-96.676c1.992-8.639,4.19-17.359,4.869-26.167C59.6,489.707,43.181,545.16,48.743,639.778Z" fill="#ecf3fe"/>
        <path id="Path_47" data-name="Path 47" d="M136.906,765.224c3.814-10.748,7.495-21.548,10.409-32.569,2.4-9.082,4.294-18.318,7.407-27.178,2.707-7.679,6.307-15.012,9.376-22.551,4.227-10.357,7.48-21.165,12.888-30.961a50.706,50.706,0,0,1,13.064-15.507c.126-1.18.192-1.822.192-1.822a153.757,153.757,0,0,1-26.7,4.588s-16.1,91.158-23.643,111.143C138.662,753.664,137.673,758.858,136.906,765.224Z" fill="#152c9d"/>
        <path id="Path_48" data-name="Path 48" d="M98.324,662.919a1.5,1.5,0,0,1-1.785,2.295c-2.294-1.011-5.017-2.265-7.488-3.556L101.858,740.9c-15.249,39.969.524,114.647.524,114.647a7.675,7.675,0,0,0,1.807,2.242c2.383,2.066,6.1,3.076,10.121,3.489q-.9-26.756-4.242-53.335c-2.751-21.851-6.587-44.934,2.022-65.206,1-2.346,2.161-4.684,2.382-7.222a21.794,21.794,0,0,0-.619-5.931c-4.463-23.821-.649-48.32,3.172-72.251.775-4.876,1.616-9.907,4.279-14.068a19.37,19.37,0,0,1,4.994-5.223A169.567,169.567,0,0,1,83.3,626.064l3.578,22.153Z" fill="#152c9d"/>
        <path id="Path_49" data-name="Path 49" d="M134.206,838.072v.008a86.441,86.441,0,0,0,18.841,9.929c10.874,4.3,15.728-3.253,17.587-7.8a12.711,12.711,0,0,1-4.33.583,22.2,22.2,0,0,1-10.336-3.548,46.261,46.261,0,0,1-12.43-10.837c-2.729-3.416-5.009-7.252-8.336-10.085-.288-.243-.583-.479-.893-.708C134.2,823.687,134.176,831.4,134.206,838.072Z" fill="#000e61"/>
        <path id="Path_50" data-name="Path 50" d="M103.436,871.5s21.91,41.37,34.886,41.894c8.314.339,11.737-5.739,13.117-10.143a12.932,12.932,0,0,1-9.59,2.22c-6.411-1.025-11.6-5.68-15.913-10.534-8.5-9.6-15.292-21.313-16.251-34.09-.008-.125-.022-.251-.03-.383a13.794,13.794,0,0,1-5.466-2.671Z" fill="#000e61"/>
        <path id="Path_51" data-name="Path 51" d="M290.983,619.646l7.908,2.928s30.637,15.507,60.647-3.216a.029.029,0,0,1,.007-.015c7.93-4.95,15.817-12.29,23.083-22.942,10.143-14.865,13.6-26.233,13.219-34.665-.162.413-.339.819-.531,1.225-7.945,16.731-20.6,32.68-35.889,43.214-18.3,12.608-43,17.447-63.221,8.218-1.512-.686-2.995-1.453-4.493-2.161A22.871,22.871,0,0,0,290.983,619.646Z" fill="#bf8024"/>
        <path id="Path_52" data-name="Path 52" d="M359.545,720.04c40.338,13.706,71.048,10.335,90.3,4.692,15.035-4.4,23.083-10.2,23.282-10.336a.021.021,0,0,0,.008-.014c.044-.229.088-.458.125-.686-13.625-1.247-26.535-7.333-38.707-13.176-6.094-2.921-12.224-5.865-17.72-9.789-13.4-9.561-22.131-24.189-30.1-38.589q-8.266-14.939-15.994-30.18a30.868,30.868,0,0,0-4.78-7.185,64.73,64.73,0,0,1-6.418,4.566.029.029,0,0,0-.007.015C359.029,620.708,359.545,720.04,359.545,720.04Z" fill="#bf8024"/>
        <path id="Path_53" data-name="Path 53" d="M351.482,1014.362l58.9,17.358c7.119-.65,10.586-5.555,12.121-11.479a22.342,22.342,0,0,1-2.693.775c-9.73,2.183-20.265.981-29.84-1.365-12.46-3.047-24.337-8.159-36.671-11.6A12.269,12.269,0,0,0,351.482,1014.362Z" fill="#4467d4"/>
        <path id="Path_54" data-name="Path 54" d="M313.262,924.789s27.346,20.332,46.047,28.4c18.258,7.871,21.135-3.718,21.26-4.264v-.008c-.081-.678-.162-1.357-.236-2.043-12.585,1.446-25.148-3.622-36.155-10.011-9.169-5.326-17.815-11.655-27.213-16.48Z" fill="#4467d4"/>
        <path id="Path_55" data-name="Path 55" d="M172.016,815.3c3.8,6.746,6.536,14.463,5.566,22.147-.621,4.921-2.726,9.568-3.3,14.495-1.36,11.617,5.874,23.222,3.455,34.666-1.549,7.326-6.865,13.3-12.733,17.955-13.907,11.028-32.725,16.478-49.943,12.168-3.655-.916-7.316-2.317-10.017-4.944-2.686-2.612-4.175-6.179-5.714-9.595a105.37,105.37,0,0,0-11.289-19.781c-11.92-16-29.44-26.69-44.713-39.533s-29.275-29.958-29.54-49.912a12.793,12.793,0,0,1,1.277-6.6,15.01,15.01,0,0,1,4.428-4.3l25.378-18.6c4.088-2.995,8.31-6.055,13.221-7.3,20.376-5.169,42.914,3.839,59.973,13.947C138.3,782.115,160.449,793.617,172.016,815.3Z" fill="none"/>
        <g id="Group_5" data-name="Group 5">
          <path id="Path_56" data-name="Path 56" d="M522.717,514.733a12.284,12.284,0,0,0,5.571,9.651l52.754,30.455a4,4,0,0,0,3.9.432l.135-.08a3.937,3.937,0,0,0,1.571-3.547l.007-1.921.166-58.7a12.279,12.279,0,0,0-5.571-9.651L530.1,451.848l-1.61-.929a4.11,4.11,0,0,0-3.733-.511c-1.144.518-1.866,1.81-1.873,3.71Z" fill="#c6d9fc"/>
          <path id="Path_57" data-name="Path 57" d="M524.762,450.408a4.11,4.11,0,0,1,3.733.511l1.61.929,51.145,29.529a12.279,12.279,0,0,1,5.571,9.651l-.166,58.7-.007,1.921a3.937,3.937,0,0,1-1.571,3.547l7.046-4.086.152-.086a3.921,3.921,0,0,0,1.6-3.562l.173-60.615a12.287,12.287,0,0,0-5.572-9.654l-52.754-30.455a3.939,3.939,0,0,0-3.962-.4l-.072.045Z" fill="url(#linear-gradient-2)"/>
          <g id="Group_4" data-name="Group 4">
            <path id="Path_58" data-name="Path 58" d="M563.309,523.5l-2.662-1.537.048-17.148c0-.206.147-.289.326-.186l2.337,1.35-.049,17.521m-22.091-52.389c-.434-.25-.871-.237-1.088.182-1.021,1.979-1.374,6.425,2.174,16.421l-6.46-3.73a3.269,3.269,0,0,0-2.9-.421,1.645,1.645,0,0,0-1.088,1.111c-.237,1.281.216,3.709.829,4.063l.021.011a2.435,2.435,0,0,0-1.148,2.33,5.66,5.66,0,0,0,.94,2.743,3.477,3.477,0,0,0-.29,3.072,12.709,12.709,0,0,0,1.5,3.212s-.478.042-.382.671.633,3.333.633,3.333.066.157.191.422a14.713,14.713,0,0,0,3.556,5.028,8.571,8.571,0,0,1,2.008,2.053,6.535,6.535,0,0,0,1.789,1.847c1.1.721,2.8,1.8,4.6,2.842,3.077,1.777,6.475,3.449,7.814,3.067a5.834,5.834,0,0,1,4.309.9c.224.129.43.259.613.381v.286a3.944,3.944,0,0,0,1.789,3.1l3.639,2.1a1.866,1.866,0,0,0,.71,1.174l8.455,4.882c.428.247.776-.116.778-.81l.058-20.686a2.121,2.121,0,0,0-.77-1.706l-8.455-4.882c-.32-.184-.594-.028-.715.352l-3.3-1.908a1.366,1.366,0,0,0-1.743.035l-3.355-1.937a28.843,28.843,0,0,0-2.953-5.289c-1.224-1.468-8.994-15.848-10.634-22.658a2.583,2.583,0,0,0-1.124-1.591" fill="#fff"/>
          </g>
        </g>
      </g>
    </g>
    
    
    
    
    
  </g>
</svg>